<svg xmlns="http://www.w3.org/2000/svg" width="42.524" height="66" viewBox="0 0 42.524 66"><path d="M125.463 34.073a24.288 24.288 0 0 0-8.854-3.756l-3.085-.671v-13.012a.386.386 0 0 0 .268.134.119.119 0 0 1 .134.134 7.091 7.091 0 0 1 4.159 6.439h10.329q-.268-8.049-6.037-12.341a20.8 20.8 0 0 0-8.854-3.756v-7.244h-9.523v6.976q-6.707.8-10.6 4.293a14.811 14.811 0 0 0-5.1 11.531q0 7.512 5.232 11.134 2.822 2.017 10.468 3.766v13.946a8.5 8.5 0 0 1-4.293-2.546 9.449 9.449 0 0 1-2.007-5.1h-10.2a15.043 15.043 0 0 0 5.768 12.476 22.379 22.379 0 0 0 10.732 4.158v5.366h9.524v-5.232a21.383 21.383 0 0 0 11.134-4.427 15.024 15.024 0 0 0 5.366-11.8q0-6.841-4.561-10.468zm-21.463-6.707a16.542 16.542 0 0 1-3.22-1.207 4.408 4.408 0 0 1-2.548-4.159 5.215 5.215 0 0 1 2.549-4.7 13.415 13.415 0 0 1 3.219-1.337zm11.134 24.012a7.047 7.047 0 0 1-1.61.4v-11.937a18.922 18.922 0 0 1 3.89 1.61 4.569 4.569 0 0 1 2.28 4.024q.006 4.293-4.56 5.903z" transform="translate(-87.5 0)" fill="#fff"/></svg>