<svg xmlns="http://www.w3.org/2000/svg" width="27.046" height="64" viewBox="0 0 27.046 64"><g transform="translate(-15.459)" fill="#fff"><circle cx="4.507" cy="4.507" r="4.507" transform="translate(24.36)"/><path d="M30.755 11.2a9.419 9.419 0 0 0-4.12.052c-8.956 1.094-11.864 11.9-11.043 20.136.356 3.562 5.743 3.6 5.383 0-.3-3-.171-7.533 1.36-10.753v11.745l.019.4-.018.182c0 9.317-.016 18.63-.385 27.94-.164 4.138 5.993 4.122 6.156 0 .289-7.3.362-14.6.379-21.9a6.835 6.835 0 0 0 .875 0c.018 7.3.088 14.6.375 21.9.164 4.122 6.321 4.138 6.156 0-.369-9.31-.382-18.623-.382-27.94a3.657 3.657 0 0 0-.093-.8c-.008-4.045-.157-8.094-.111-12.136 1.834 3.235 2 8.17 1.683 11.368-.361 3.6 5.027 3.56 5.383 0 .84-8.414-2.208-19.494-11.617-20.194z"/></g></svg>