<svg xmlns="http://www.w3.org/2000/svg" width="54" height="54" viewBox="0 0 54 54"><path d="M11.473 28.035v-19.123a5.559 5.559 0 0 1 .457-1.912h-8.106s-3.824 0-3.824 3.824v13.386c0 3.824 3.824 3.824 3.824 3.824v19.123h11.476v-15.3s-3.827.002-3.827-3.822z" transform="translate(0 6.843)" fill="#fff"/><path d="M8.737 11.473a5.678 5.678 0 0 0 2.729-.719l.359-.2a5.72 5.72 0 1 0-3.088.916z" transform="translate(2.737)" fill="#fff"/><path d="M31.473 7h-8.1a5.58 5.58 0 0 1 .455 1.912v19.123c0 3.824-3.824 3.824-3.824 3.824v15.3h11.469v-19.124s3.824 0 3.824-3.824v-13.387s.003-3.824-3.824-3.824z" transform="translate(18.702 6.843)" fill="#fff"/><path d="M21.639 10.554l.371.2a5.671 5.671 0 0 0 2.727.719 5.762 5.762 0 1 0-3.1-.92z" transform="translate(17.79)" fill="#fff"/><ellipse cx="5.737" cy="5.737" rx="5.737" ry="5.737" transform="translate(21.263)" fill="#fff"/><path d="M38.474 17.667s0-3.824-3.825-3.824h-15.3s-3.822 0-3.822 3.824v13.386c0 3.824 3.824 3.824 3.824 3.824v19.123h15.3v-19.122s3.824 0 3.824-3.824z" fill="#fff"/></svg>