<svg xmlns="http://www.w3.org/2000/svg" width="66.75" height="61.574" viewBox="0 0 66.75 61.574"><path d="M11.125 61.574a4 4 0 0 1-4-4v-29.5a3.97 3.97 0 0 1 .049-.625h-6.049a1.125 1.125 0 0 1-.348-2.2l31.098-24.799h.038a2.6 2.6 0 0 1 2.924 0h.038l17.25 13.759v-3.884a2 2 0 0 1 2-2h3.5a2 2 0 0 1 2 2v9.866l6.349 5.064a1.125 1.125 0 0 1-.348 2.2h-6.05a4.081 4.081 0 0 1 .049.625v29.5a4 4 0 0 1-4 4z" transform="translate(-641.625 -470.175) translate(641.625 470.175)" fill="#ff9f24"/><path d="M1.5 50.25a1.5 1.5 0 0 1-1.5-1.5v-31.606a1.5 1.5 0 0 1 1.031-1.425l19.706-15.344h.02a1.5 1.5 0 0 1 1.985 0h.02l19.613 15.375.045.06a1.5 1.5 0 0 1 1.08 1.44v31.5a1.5 1.5 0 0 1-1.5 1.5z" transform="translate(-641.625 -470.175) translate(653.25 476.25)" fill="#ffb841"/><path d="M1.187 39.75a1.187 1.187 0 0 1-1.187-1.187v-24.997a1.187 1.187 0 0 1 .816-1.127l15.584-12.139h.016a1.187 1.187 0 0 1 1.574 0h.017l15.514 12.159.035.047a1.187 1.187 0 0 1 .854 1.14v24.917a1.186 1.186 0 0 1-1.186 1.187z" transform="translate(-641.625 -470.175) translate(657.795 481.5)" fill="#ffc85f"/><path d="M0 9.656v16.5c0 1.125.375 1.5 1.5 1.5h19.875a1.771 1.771 0 0 0 1.875-1.875v-16.125a2.586 2.586 0 0 0-1.125-1.875l-9.75-7.5a1.7 1.7 0 0 0-1.875 0l-9.375 7.5a2.586 2.586 0 0 0-1.125 1.875z" transform="translate(-641.625 -470.175) translate(663.375 489.094)" fill="#ffd779"/><path d="M0 5.569v9.517c0 .649.216.865.865.865h11.463a1.022 1.022 0 0 0 1.082-1.081v-9.3a1.492 1.492 0 0 0-.649-1.081l-5.624-4.327a.982.982 0 0 0-1.081 0l-5.407 4.326a1.492 1.492 0 0 0-.649 1.081z" transform="translate(-641.625 -470.175) translate(668.25 496.115)" fill="#ffe996"/></svg>