<svg xmlns="http://www.w3.org/2000/svg" viewBox="0 0 60 60" height="60" width="60"><path d="M12.085 1.563c.357.357.733.778 1.148 1.285l7.137 10.43c1.059 2.118-.162 4.004-1.372 5.215-1.858 2.388-2.626 4.323-2.421 6.089.178 1.525 1.066 2.988 2.968 4.89l10.98 10.979c1.903 1.903 3.366 2.791 4.891 2.969 1.766.206 3.701-.562 6.089-2.421 1.211-1.211 3.098-2.432 5.215-1.372l10.431 7.136c.507.415.927.79 1.285 1.148a4.969 4.969 0 0 1 1.512 2.371 3.674 3.674 0 0 1-.326 2.246 12.724 12.724 0 0 1-3.276 4.796 10.476 10.476 0 0 1-4.871 2.41 15.961 15.961 0 0 1-6.485-.142 31.948 31.947 0 0 1-7.855-2.896c-5.899-3-12.37-7.911-19.235-14.596-6.687-6.865-11.597-13.336-14.597-19.233a31.947 31.946 0 0 1-2.896-7.855 15.961 15.961 0 0 1-.139-6.482 10.476 10.476 0 0 1 2.407-4.873 12.724 12.724 0 0 1 4.796-3.278 3.674 3.674 0 0 1 2.246-.326 4.969 4.969 0 0 1 2.37 1.511z" fill="#fff"/></svg>