<svg xmlns="http://www.w3.org/2000/svg" width="60" height="53.333" viewBox="0 0 60 53.333"><g fill="#fff"><path d="M8.63 28.71a5.23 5.23 0 0 0-3.574-1.3 5.233 5.233 0 0 0-3.575 1.3 4.042 4.042 0 0 0-1.481 3.143 4.139 4.139 0 0 0 2.528 3.819v43.959a1.007 1.007 0 0 0 .375.781 1.3 1.3 0 0 0 .889.33h2.527a1.3 1.3 0 0 0 .889-.33 1.008 1.008 0 0 0 .375-.781v-43.959a4.139 4.139 0 0 0 2.528-3.819 4.043 4.043 0 0 0-1.481-3.143z" transform="translate(0 -27.408)"/><path d="M122.334 64.71a1.954 1.954 0 0 0-1.526-.751 5.215 5.215 0 0 0-1.847.829q-1.406.83-2.983 1.856a20.007 20.007 0 0 1-3.728 1.856 11.135 11.135 0 0 1-3.982.829 5.821 5.821 0 0 1-2.984-.75 55.644 55.644 0 0 0-7.421-3.479 19.7 19.7 0 0 0-6.778-1.145q-6.27 0-14.268 4.739a27.95 27.95 0 0 0-2.678 1.7 2.781 2.781 0 0 0-1.051 2.172v29.306a2.64 2.64 0 0 0 .644 1.777 1.95 1.95 0 0 0 1.525.751 2.131 2.131 0 0 0 1.118-.355q9.219-5.767 15.726-5.767a13.852 13.852 0 0 1 4.829.869 19.317 19.317 0 0 1 3.915 1.9 21.606 21.606 0 0 0 3.677 1.9 11 11 0 0 0 4.186.868q5.22 0 12.506-4.582a5 5 0 0 0 1.339-1.086 2.392 2.392 0 0 0 .424-1.521v-30.14a2.639 2.639 0 0 0-.643-1.776z" transform="translate(0 -27.408) translate(-62.977 -31.495)"/></g></svg>