<svg xmlns="http://www.w3.org/2000/svg" xmlns:xlink="http://www.w3.org/1999/xlink" viewBox="0 0 79.5 79.499999" height="79.5" width="79.5"><defs><linearGradient gradientUnits="objectBoundingBox" y2="1.413" x2=".5" y1="-.423" x1=".5" id="a"><stop stop-color="#e8e2f0" offset="0"/><stop stop-color="#8a8e92" offset="1"/></linearGradient><linearGradient gradientUnits="userSpaceOnUse" x2="72.699" gradientTransform="matrix(.996 0 0 1.005 4.824 3.719)" xlink:href="#a" y2="81.35" y1="-9.524" id="c"/><filter filterUnits="userSpaceOnUse" height="85.026" width="84.375" y="0" x="0" id="d"><feOffset dy="2"/><feGaussianBlur result="d" stdDeviation="2"/><feFlood flood-opacity=".502"/><feComposite result="result1" in2="d" operator="in"/><feComposite in2="result1" in="SourceGraphic"/></filter><linearGradient gradientTransform="matrix(.996 0 0 1.005 17.535 9.389)" y2="69.198" x2="24.486" y1="-20.715" x1="24.486" gradientUnits="userSpaceOnUse" id="b" xlink:href="#a"/></defs><g transform="translate(-2.162 5.764)"><circle r="39.75" cy="33.986" cx="41.912" fill="#302f33"/><path d="M43.027 58.577l-.726-2.967-.517.006h-.271l-.72 2.943-.6-.053-.1-2.954c-.29-.022-.578-.05-.855-.083l-1.017 2.834-.6-.115.2-2.931c-.414-.076-.825-.164-1.22-.261l-1.346 2.67-.576-.188.556-2.865c-.286-.09-.564-.184-.827-.279l-1.61 2.5-.553-.245.848-2.78c-.379-.165-.762-.346-1.139-.537l-1.894 2.277-.52-.312 1.178-2.648c-.3-.178-.595-.362-.875-.548l-2.062 2.154-.5-.348 1.4-2.628c-.331-.251-.658-.514-.971-.78l-2.294 1.875-.45-.406 1.694-2.419c-.215-.208-.431-.427-.641-.647l-2.265 1.347-.386-.468 1.767-1.869c-.3-.355-.581-.715-.842-1.069l-2.4 1.056-.326-.511 1.976-1.63c-.181-.278-.354-.56-.516-.836l-2.489.8-.27-.542 2.128-1.41c-.212-.418-.408-.839-.584-1.249l-2.543.506-.207-.57 2.273-1.159c-.159-.445-.3-.885-.423-1.307l-2.577.191-.136-.591 2.389-.871c-.073-.324-.138-.652-.194-.972l-2.584-.078-.075-.601 2.468-.62c-.052-.454-.09-.916-.113-1.37l-2.555-.389v-.606l2.527-.311c0-.469.023-.931.054-1.372l-2.49-.7.074-.6h2.547c.045-.339.1-.669.151-.977l-2.405-.965.136-.591 2.538.266c.108-.446.231-.891.364-1.32l-2.278-1.249.207-.57 2.5.576c.16-.423.336-.847.523-1.261l-2.121-1.526.273-.535 2.425.882c.209-.4.435-.795.671-1.181l-1.931-1.79.339-.5 2.317 1.18c.189-.27.381-.533.571-.781l-1.747-1.996.389-.464 2.2 1.427c.294-.339.6-.671.909-.986l-1.5-2.21.443-.413 2.026 1.7c.327-.3.669-.585 1.016-.861l-1.236-2.4.491-.356 1.817 1.949c.357-.251.729-.5 1.1-.726l-.94-2.552.53-.294 1.584 2.179c.277-.147.557-.288.832-.419l-.676-2.663.558-.236 1.359 2.352c.405-.163.817-.314 1.222-.449l-.35-2.753.581-.166 1.077 2.527c.421-.111.844-.209 1.256-.292l-.013-2.808.6-.1.767 2.674.338-.049c.236-.035.44-.066.738-.088l.337-2.816.6-.021.441 2.781h.5l.568.007.446-2.766.606.022.333 2.823c.427.038.853.089 1.265.15l.772-2.69.6.1-.013 2.84c.417.089.833.191 1.238.3l1.092-2.574.583.167-.358 2.815c.4.139.8.291 1.191.453l1.4-2.419.558.236-.701 2.755c.273.135.541.274.794.412l1.645-2.264.531.294-.984 2.666c.359.226.715.465 1.058.709l1.909-2.046.491.356-1.3 2.528c.334.273.658.553.963.832l2.146-1.8.443.413-1.6 2.351c.293.3.58.623.855.943l2.343-1.524.39.464-1.875 2.138c.183.244.359.488.522.726l2.493-1.27.339.5-2.084 1.931c.223.374.432.748.622 1.112l2.628-.956.275.541-2.3 1.658c.173.389.335.787.482 1.181l2.723-.628.207.57-2.494 1.363c.124.409.236.823.333 1.231l2.78-.292.136.591-2.638 1.052c.051.3.1.593.134.884h2.8l.074.6-2.736.772c.028.415.044.843.048 1.272l2.779.342v.606l-2.811.433c-.023.428-.059.855-.105 1.268l2.715.678-.074.6-2.839.087c-.055.306-.114.6-.175.877l2.626.957-.136.591-2.83-.211c-.117.406-.249.815-.39 1.214l2.489 1.269-.207.57-2.784-.554c-.169.4-.351.788-.541 1.166l2.325 1.54-.27.542-2.712-.868c-.146.251-.3.509-.466.764l2.149 1.773-.326.511-2.6-1.145c-.245.335-.509.674-.784 1.007l1.914 2.018-.385.468-2.44-1.452c-.185.2-.38.4-.577.593l1.806 2.581-.45.406-2.435-1.99c-.3.26-.607.51-.911.744l1.471 2.784-.5.348-2.171-2.269c-.281.188-.559.365-.826.527l1.237 2.782-.52.312-1.977-2.379c-.359.186-.725.363-1.087.526l.885 2.9-.554.247-1.668-2.594c-.262.1-.527.19-.787.275l.574 2.961-.576.188-1.384-2.753c-.388.1-.788.19-1.187.268l.209 3-.595.115-1.035-2.883c-.286.036-.568.067-.836.09l-.106 3-.6.053zm-1.305-41.978a17.2 17.2 0 1 0 6.713 1.355 17.141 17.141 0 0 0-6.713-1.355z" fill="url(#b)"/><path d="M42.669 76.745l-1.077-4.406-.768.009h-.4l-1.07 4.371-.9-.078-.155-4.385c-.43-.033-.857-.075-1.27-.124l-1.505 4.202-.884-.171.3-4.35c-.612-.113-1.221-.244-1.812-.389l-2 3.965-.856-.278.826-4.255c-.42-.132-.833-.272-1.228-.415l-2.39 3.715-.822-.366 1.26-4.127c-.564-.246-1.133-.515-1.691-.8l-2.803 3.384-.772-.464 1.748-3.928c-.438-.26-.876-.534-1.3-.813l-3.06 3.2-.742-.523 2.073-3.9c-.494-.374-.979-.764-1.442-1.159l-3.405 2.786-.669-.6 2.517-3.6c-.318-.308-.638-.631-.951-.961l-3.364 2-.572-.695 2.628-2.771c-.436-.521-.857-1.055-1.251-1.588l-3.563 1.571-.484-.759 2.934-2.419c-.264-.406-.521-.824-.766-1.241l-3.696 1.183-.4-.805 3.16-2.093c-.312-.615-.6-1.239-.867-1.854l-3.776.752-.309-.847 3.37-1.719c-.227-.631-.439-1.284-.628-1.94l-3.827.285-.2-.877 3.546-1.292c-.109-.488-.206-.974-.288-1.443l-3.836-.114-.108-.9 3.663-.915c-.078-.678-.134-1.363-.169-2.034l-3.794-.578v-.9l3.751-.462c.005-.681.033-1.367.08-2.038l-3.7-1.042.109-.893h3.786c.064-.483.139-.972.224-1.451l-3.571-1.425.2-.877 3.769.395c.159-.658.341-1.318.54-1.961l-3.379-1.855.308-.846 3.708.855c.238-.631.5-1.261.776-1.872l-3.147-2.264.408-.8 3.6 1.309c.314-.594.649-1.184 1-1.752l-2.872-2.654.5-.747 3.44 1.752c.284-.407.57-.8.848-1.159l-2.591-2.957.578-.689 3.263 2.117c.437-.5.892-1 1.351-1.463l-2.234-3.281.655-.613 3.007 2.522c.487-.44 1-.87 1.509-1.278l-1.832-3.562.728-.529 2.7 2.9c.532-.373 1.085-.736 1.641-1.077l-1.4-3.792.787-.436 2.352 3.234c.4-.212.815-.421 1.235-.622l-1-3.95.828-.352 2.018 3.492c.6-.243 1.216-.467 1.815-.667l-.52-4.086.865-.248 1.6 3.754c.61-.162 1.238-.308 1.864-.434l-.023-4.169.889-.141 1.137 3.967.493-.071c.354-.053.659-.1 1.105-.133l.5-4.19.902-.032.655 4.128h.745c.289 0 .573 0 .843.011l.651-4.106.9.032.5 4.191c.627.056 1.259.131 1.877.222l1.142-3.992.887.141-.019 4.215c.618.133 1.236.285 1.837.451l1.623-3.819.865.248-.53 4.178c.59.2 1.186.431 1.769.673l2.075-3.59.829.352-1.038 4.085c.4.2.8.4 1.18.611l2.441-3.357.787.436-1.46 3.958c.529.333 1.057.688 1.569 1.054l2.834-3.038.728.529-1.933 3.753c.493.4.974.818 1.429 1.236l3.185-2.672.658.614-2.377 3.49c.439.457.866.928 1.269 1.4l3.487-2.263.578.689-2.783 3.173c.27.36.53.722.775 1.077l3.7-1.885.5.746-3.1 2.863c.321.536.631 1.091.923 1.65l3.9-1.418.408.8-3.409 2.463c.254.573.495 1.163.715 1.752l4.043-.932.308.846-3.694 2.026c.182.6.348 1.214.494 1.827l4.128-.433.2.877-3.917 1.563c.074.43.141.872.2 1.313h4.153l.11.894-4.063 1.145c.041.629.065 1.264.07 1.888l4.126.508v.9l-4.172.642c-.034.63-.087 1.264-.157 1.883l4.031 1.006-.11.893-4.215.129c-.078.439-.165.877-.259 1.3l3.9 1.421-.2.877-4.2-.313c-.175.606-.37 1.213-.578 1.8l3.7 1.885-.308.846-4.133-.822c-.247.578-.517 1.161-.8 1.731l3.452 2.287-.4.805-4.026-1.289c-.22.379-.453.761-.693 1.135l3.191 2.632-.483.759-3.864-1.7c-.371.506-.763 1.009-1.164 1.5l2.842 3-.572.695-3.635-2.161c-.286.3-.575.6-.858.88l2.682 3.832-.669.6-3.615-2.956c-.444.383-.9.755-1.352 1.1l2.192 4.135-.737.516-3.224-3.368c-.4.271-.816.534-1.226.783l1.837 4.129-.772.464-2.941-3.539c-.54.28-1.084.543-1.614.782l1.313 4.3-.822.366-2.477-3.851c-.387.144-.78.282-1.168.409l.853 4.4-.856.278-2.053-4.074c-.586.149-1.179.283-1.763.4l.31 4.45-.884.172-1.536-4.287c-.4.052-.822.1-1.241.135l-.157 4.447-.9.079zm-10.555-17.064c-2.162 3.8-2.115 6.413.138 7.768a14.7 14.7 0 0 0 3.835 1.126 28.372 28.372 0 0 0 4.735.4 28.146 28.146 0 0 0 26.932-19.991 11.283 11.283 0 0 0 .375-2.252c0-2.737-2.4-4.125-7.125-4.125h-14.937a6.2 6.2 0 0 0-3.743.866c-.676.422-1.055.927-2.25 3l-7.927 13.154.115-.2-1.922 3.2zm-13.771-2a18.666 18.666 0 0 0 3.625 3.583 3.511 3.511 0 0 0 1.816.541c1.74 0 3.521-1.468 5.293-4.363l7.323-12.183-.076.089a11.744 11.744 0 0 0 1.5-4.876 8.375 8.375 0 0 0-1.225-3.766l-9.475-15.763 2.046 3.405c-1.8-3-3.616-4.523-5.39-4.523a3.509 3.509 0 0 0-1.815.54 18.712 18.712 0 0 0-3.641 3.607l.063-.086a28.094 28.094 0 0 0 .627 34.721l-.672-.921zm22.481-44.962a28.2 28.2 0 0 0-7.3.958 5.982 5.982 0 0 0-1.265.5c-2.325 1.4-2.3 4.13.069 8.122l7.786 12.976.045.1.433.842a6.937 6.937 0 0 0 1.683 2.033c.6.374 1.437.605 3.776.605h14.953c4.728 0 7.125-1.388 7.125-4.125a15.5 15.5 0 0 0-1.081-4.067 28.134 28.134 0 0 0-26.224-17.944z" fill="url(#c)" transform="translate(.901 -6.247)" filter="url(#d)"/></g></svg>