<svg xmlns="http://www.w3.org/2000/svg" width="51.562" height="60" viewBox="0 0 51.562 60"><path d="M84.28 16.371a.469.469 0 0 0-.467-.433h-8.438v-2.344a13.594 13.594 0 0 0-27.187 0v2.344h-8.438a.469.469 0 0 0-.467.433l-3.283 43.129a.47.47 0 0 0 .467.5h50.627a.469.469 0 0 0 .467-.5zm-32.342-2.777a9.844 9.844 0 0 1 19.688 0v2.344h-19.688zm-1.875 15.469a4.693 4.693 0 0 1-4.687-4.687 4.426 4.426 0 0 1 2.813-4.3v4.3a1.875 1.875 0 0 0 3.75 0v-4.294a4.436 4.436 0 0 1 2.813 4.293 4.693 4.693 0 0 1-4.689 4.688zm23.438 0a4.693 4.693 0 0 1-4.687-4.687 4.426 4.426 0 0 1 2.813-4.3v4.3a1.875 1.875 0 0 0 3.75 0v-4.294a4.436 4.436 0 0 1 2.813 4.293 4.693 4.693 0 0 1-4.69 4.688z" transform="translate(-36 2) translate(0 -2)" fill="#fff"/></svg>