<svg xmlns="http://www.w3.org/2000/svg" width="60" height="60" viewBox="0 0 60 60"><path d="M53.065 10.03a4.976 4.976 0 0 0-4.73-3.36h-8.335v-6.67h-20v6.67h-8.335a5.017 5.017 0 0 0-4.73 3.36l-6.935 19.97v26.665a3.349 3.349 0 0 0 3.335 3.335h3.335a3.347 3.347 0 0 0 3.33-3.335v-3.335h40v3.335a3.347 3.347 0 0 0 3.33 3.335h3.335a3.349 3.349 0 0 0 3.335-3.335v-26.665zm-41.4 33.31a5 5 0 1 1 5-5.01 5 5 0 0 1-5 5.01zm36.67 0a5 5 0 1 1 5-5.01 5 5 0 0 1-5 5.01zm-41.665-16.675l5-15h36.67l5 15z" fill="#fff"/></svg>