<svg xmlns="http://www.w3.org/2000/svg" width="67.93" height="67.93" viewBox="0 0 67.93 67.93"><g transform="translate(0 0)"><path d="M60.079,11.356a5.634,5.634,0,0,0-5.355-3.8H45.284V0H22.646V7.552H13.207a5.68,5.68,0,0,0-5.355,3.8L0,33.965V64.154A3.791,3.791,0,0,0,3.776,67.93H7.552a3.79,3.79,0,0,0,3.767-3.776V60.379H56.611v3.776a3.79,3.79,0,0,0,3.767,3.776h3.776a3.791,3.791,0,0,0,3.776-3.776V33.965ZM13.207,49.068A5.664,5.664,0,1,1,18.87,43.4,5.662,5.662,0,0,1,13.207,49.068Zm41.517,0A5.664,5.664,0,1,1,60.379,43.4,5.664,5.664,0,0,1,54.723,49.068ZM7.552,30.189l5.655-16.983H54.723l5.655,16.983Z" transform="translate(0)" fill="#242424"/></g></svg>