<svg xmlns="http://www.w3.org/2000/svg" width="51" height="51" viewBox="0 0 51 51"><g transform="translate(0 0)"><path d="M100.494,41.976a1.494,1.494,0,0,0,1.494-1.494,1.4,1.4,0,0,1,1.395-1.494h9.042a3.007,3.007,0,0,1,2.342,1.144,5.925,5.925,0,0,0,4.377,1.944h7.747a1.494,1.494,0,1,0,0-2.988h-7.747a3.008,3.008,0,0,1-2.342-1.144A5.925,5.925,0,0,0,112.425,36h-9.042A4.386,4.386,0,0,0,99,40.482,1.494,1.494,0,0,0,100.494,41.976Zm0,0" transform="translate(-89.139 -32.414)" fill="#ffb331"/><path d="M290.494,2.988h16.236a1.494,1.494,0,1,0,0-2.988H290.494a1.494,1.494,0,0,0,0,2.988Zm0,0" transform="translate(-260.213)" fill="#ffb331"/><path d="M430.922,68.494a1.5,1.5,0,0,0,1.494,1.494H437.5a1.494,1.494,0,0,0,0-2.988h-5.087A1.494,1.494,0,0,0,430.922,68.494Zm0,0" transform="translate(-387.998 -60.326)" fill="#ffb331"/><path d="M49.506,227.189H48.012v-26.7a1.494,1.494,0,0,0-2.049-1.387l-14.942,5.977a1.494,1.494,0,0,0-.939,1.387v8.765H4.482a1.494,1.494,0,0,0-1.494,1.494v10.459H1.494a1.494,1.494,0,0,0,0,2.988H49.506a1.494,1.494,0,0,0,0-2.988ZM13.447,224.2H10.459a1.494,1.494,0,0,1,0-2.988h2.988a1.494,1.494,0,0,1,0,2.988Zm8.97,0H19.429a1.494,1.494,0,0,1,0-2.988h2.988a1.494,1.494,0,0,1,0,2.988Zm8.97,0H28.4a1.494,1.494,0,0,1,0-2.988h2.988a1.494,1.494,0,0,1,0,2.988Zm8.956,0H37.354a1.494,1.494,0,0,1,0-2.988h2.988a1.494,1.494,0,0,1,0,2.988Zm0-5.977H37.354a1.494,1.494,0,0,1,0-2.988h2.988a1.494,1.494,0,0,1,0,2.988Zm0-5.977H37.354a1.494,1.494,0,0,1,0-2.988h2.988a1.494,1.494,0,0,1,0,2.988Zm0,0" transform="translate(0 -179.177)" fill="#ffb331"/><path d="M192.97,213h-3.224l.966,11.853h5.148q-.437-3.276-.875-6.553l-.535-4A1.494,1.494,0,0,0,192.97,213Zm0,0" transform="translate(-170.845 -191.783)" fill="#ffb331"/><path d="M65.842,127.373A1.494,1.494,0,0,0,64.353,126h-5.18a1.494,1.494,0,0,0-1.489,1.373c-.237,2.907-1.067,13.107-1.559,19.146H67.4Zm0,0" transform="translate(-50.534 -113.449)" fill="#ffb331"/></g></svg>