<svg xmlns="http://www.w3.org/2000/svg" width="64.365" height="16.769" viewBox="0 0 64.365 16.769"><g transform="translate(0.001 -182.69)"><g transform="translate(-0.001 182.69)"><path d="M62.37,196.62l-.233-1.506L62.043,195c-5.2-6.087-9.8-6.4-11.529-6.517-.172-.012-.363-.024-.459-.04a13.215,13.215,0,0,0-4.578-1.291h-.005a3.6,3.6,0,0,0-.785.184,2.744,2.744,0,0,1-1.905.075,13.976,13.976,0,0,0-4.348-.6l-2.7.66c-2.252-.816-6.167-2.608-7.269-3.116v-1.063l-.236-.15a2.714,2.714,0,0,0-1.468-.453,3.314,3.314,0,0,0-2.364,1.215,15.4,15.4,0,0,0-8.308,2.307,21.766,21.766,0,0,1-3.753,2.106l-.035-.046-.032.009-.376-.413a1.53,1.53,0,0,0,1.084-1.46v-.895a1.536,1.536,0,0,0-1.534-1.534H8.5a1.533,1.533,0,0,0-1.226.62,1.515,1.515,0,0,0-1.331-.556c-.567,0-1.156-.013-1.727-.025-.548-.013-1.081-.025-1.563-.025-1.182,0-2.653,0-2.653.945V191.5l3.26.806v-.654c0-2.471,2.554-3.052,2.663-3.077l.189-.041.114-.153c.066-.089.194-.269.34-.494l.621,1.835-3.523,1,.59,5.565.291.113c.195.075,2.969,1.143,5.67,2.006a4.986,4.986,0,1,1,7.2-.024,5.017,5.017,0,0,1-.6.528,4.928,4.928,0,0,1-.88.542c4.267-.169,21.841-.452,31.367-.589l.245,0a4.788,4.788,0,0,1-.978-1.01,4.941,4.941,0,0,1-.935-2.887,4.985,4.985,0,0,1,9.971,0,5.188,5.188,0,0,1-1.4,3.45,5.132,5.132,0,0,1-.582.5c2.04.026,4.187.052,5.966.052a36.383,36.383,0,0,0,3.848-.111c.574-.088.884-.325.92-.7C64.381,197.911,64.428,197.4,62.37,196.62Z" transform="translate(0.001 -182.69)" fill="#ffb331"/><path d="M79.725,254.455a3.881,3.881,0,0,0,1.659-.467,3.83,3.83,0,1,0-1.862.487C79.592,254.477,79.657,254.458,79.725,254.455Z" transform="translate(-65.717 -238.23)" fill="#ffb331"/><path d="M362.135,254.491a4.859,4.859,0,0,0,1.951-.536,4.073,4.073,0,0,0,.7-.5,3.959,3.959,0,1,0-5.364-.053,4,4,0,0,0,.685.513,3.912,3.912,0,0,0,1.488.522A4.129,4.129,0,0,0,362.135,254.491Z" transform="translate(-311.515 -238.245)" fill="#ffb331"/></g></g></svg>