<svg xmlns="http://www.w3.org/2000/svg" viewBox="0 0 36.999999 36.999999" height="37" width="37"><defs><linearGradient gradientUnits="userSpaceOnUse" y2="37" x2="18.5" x1="18.5" id="a"><stop stop-color="#ffca00" offset="0"/><stop stop-color="#f47200" offset="1"/></linearGradient></defs><path d="M18.5 0a18.5 18.5 0 1 0 18.5 18.5 18.5 18.5 0 0 0-18.5-18.5zm.056 27.227h-8.015c0-5.779 5.075-5.777 6.2-7.288l.129-.689a5.523 5.523 0 0 1-2.7-5c0-2.979 1.938-5.394 4.328-5.394 2.39 0 4.328 2.415 4.328 5.394a5.542 5.542 0 0 1-2.658 4.978l.147.783c1.236 1.438 6.142 1.532 6.142 7.213z" fill="url(#a)"/></svg>