<svg xmlns="http://www.w3.org/2000/svg" viewBox="0 0 31.999999 31.999999" height="32" width="32"><path d="M4 0a4 4 0 1 0 4 4 4.005 4.005 0 0 0-4-4z" fill="#272727"/><path d="M4 12.001a4 4 0 1 0 4 4 4.005 4.005 0 0 0-4-4z" fill="#272727"/><path d="M4 24.001a4 4 0 1 0 4 4 4.006 4.006 0 0 0-4-4z" fill="#272727"/><path d="M16 0a4 4 0 1 0 4 4 4.005 4.005 0 0 0-4-4z" fill="#272727"/><path d="M16 12.001a4 4 0 1 0 4 4 4.005 4.005 0 0 0-4-4z" fill="#272727"/><path d="M16 24.001a4 4 0 1 0 4 4 4.006 4.006 0 0 0-4-4z" fill="#272727"/><path d="M28 7.999a4 4 0 1 0-4-4 4.006 4.006 0 0 0 4 4z" fill="#272727"/><path d="M28 12.001a4 4 0 1 0 4 4 4.006 4.006 0 0 0-4-4z" fill="#272727"/><path d="M28 24.001a4 4 0 1 0 4 4 4.006 4.006 0 0 0-4-4z" fill="#272727"/></svg>