<?xml version="1.0" encoding="UTF-8"?>
<!DOCTYPE svg PUBLIC "-//W3C//DTD SVG 1.1//EN" "http://www.w3.org/Graphics/SVG/1.1/DTD/svg11.dtd">
<!-- Creator: CorelDRAW X8 -->
<?xml-stylesheet href="convert.css" type="text/css"?>
<svg xmlns="http://www.w3.org/2000/svg" fill="#FFB943" xml:space="preserve" width="200px" height="200px" version="1.1" style="shape-rendering:geometricPrecision; text-rendering:geometricPrecision; image-rendering:optimizeQuality; fill-rule:evenodd; clip-rule:evenodd"
viewBox="0 0 200 200"
 xmlns:xlink="http://www.w3.org/1999/xlink">
 <g id="Слой_x0020_1">
  <metadata id="CorelCorpID_0Corel-Layer"/>
  <path class="fil0 str0" d="M80 96l10 13c-5,5 -16,18 -40,11 -9,-3 -21,-11 -22,-29 -2,-40 41,-46 63,-24 5,5 10,13 15,21 8,11 16,22 28,17 19,-10 12,-23 4,-31 -4,-3 -16,-6 -27,7 -1,-3 -3,-5 -4,-7 -2,-2 -3,-4 -5,-7 2,-5 13,-13 28,-13 11,0 42,10 30,50 -7,16 -25,21 -42,16 -26,-7 -39,-61 -62,-48 -4,2 -18,15 -7,28 13,15 32,-4 31,-4z"/>
  <path class="fil0 str0" d="M97 175c-15,-15 -30,-31 -45,-47 5,1 9,1 13,1 3,0 7,0 10,-1l21 23c7,-8 14,-16 21,-23 4,0 8,1 12,1 4,0 8,0 12,-1l-44 47z"/>
  <g>
   <path class="fil1" d="M45 160l-36 -14 0 0 1 0 1 0 1 -1 1 0 1 -1 1 0 1 -1 1 0 0 -1 1 0 1 -1 1 0 0 -1 1 0 1 -1 0 -1 1 0 1 -1 0 -1 1 0 1 -1 0 -1 1 -1 0 -1 1 0 0 -1 1 -1 0 -1 0 -1 1 -1 0 -1 0 -1 15 35zm-6 -116l4 3 0 0 -3 3 -3 3 -2 3 -2 3 -2 3 -2 3 -2 4 -2 3 -1 3 -2 4 -1 3 -1 3 -1 4 0 3 -1 3 0 4 0 3 0 3 0 4 0 3 0 3 1 3 1 4 1 3 1 3 1 3 1 2 2 3 2 3 2 2 2 3 2 2 -4 4 -2 -3 -2 -3 -2 -2 -2 -3 -2 -3 -2 -3 -1 -4 -1 -3 -1 -3 -1 -4 -1 -3 0 -3 0 -4 0 -3 0 -4 0 -4 0 -3 1 -4 1 -3 0 -4 2 -4 1 -3 1 -4 2 -3 1 -4 2 -3 2 -3 3 -4 2 -3 3 -3 2 -3 3 -3 0 0zm106 -9l-3 3 -3 -2 -2 -2 -3 -2 -2 -2 -3 -1 -3 -2 -3 -1 -3 -1 -3 -1 -3 -1 -3 0 -3 -1 -4 0 -3 0 -3 0 -4 0 -3 1 -3 0 -4 1 -3 1 -4 1 -3 1 -3 1 -4 2 -3 1 -3 2 -3 2 -3 2 -3 3 -3 2 -3 3 -3 2 -4 -3 3 -3 3 -3 3 -2 4 -3 3 -2 3 -2 4 -2 3 -2 4 -1 3 -2 4 -1 3 -1 4 -1 4 -1 3 0 4 -1 3 0 4 0 4 0 3 0 4 1 3 1 3 0 4 1 3 2 3 1 3 1 3 2 3 2 3 2 3 2 2 3z"/>
  </g>
  <g>
   <path class="fil1" d="M151 44l35 14 0 0 -1 0 -1 1 -1 0 -1 0 -1 1 -1 0 -1 1 0 0 -1 1 -1 0 -1 1 -1 0 0 1 -1 1 -1 0 0 1 -1 0 -1 1 0 1 -1 1 0 0 -1 1 -1 1 0 1 0 1 -1 0 0 1 -1 1 0 1 -1 1 0 1 0 1 -14 -35zm6 118l-3 -4 0 0 3 -3 2 -2 3 -3 2 -4 2 -3 2 -3 2 -3 1 -3 2 -4 1 -3 1 -3 1 -4 1 -3 1 -4 0 -3 0 -4 0 -3 0 -3 0 -4 0 -3 -1 -3 0 -4 -1 -3 -1 -3 -1 -3 -1 -3 -2 -3 -2 -3 -1 -2 -2 -3 -2 -3 -3 -2 4 -4 2 3 3 3 2 3 2 3 1 3 2 3 2 3 1 3 1 4 1 3 0 4 1 3 0 4 0 4 0 3 0 4 0 3 -1 4 0 4 -1 3 -1 4 -1 4 -2 3 -1 4 -2 3 -2 4 -2 3 -2 3 -3 4 -2 3 -3 3 -3 3 0 0zm-107 7l3 -3 3 2 2 2 3 2 3 2 3 2 3 1 3 1 3 2 3 1 3 0 3 1 3 0 4 1 3 0 4 0 3 0 3 0 4 -1 3 -1 4 0 3 -1 3 -2 4 -1 3 -1 3 -2 4 -2 3 -2 3 -2 3 -2 3 -2 3 -3 3 -3 3 4 -3 3 -3 2 -3 3 -3 2 -3 3 -4 2 -3 2 -4 1 -3 2 -4 1 -4 1 -3 1 -4 1 -3 1 -4 0 -4 1 -3 0 -4 0 -4 0 -3 -1 -4 0 -3 -1 -4 -1 -3 -1 -3 -1 -4 -1 -3 -2 -3 -2 -3 -2 -3 -2 -2 -2 -3 -3z"/>
  </g>
 </g>
</svg>
