<svg xmlns="http://www.w3.org/2000/svg" width="2865" height="869" viewBox="0 0 2865 869">
  <defs>
    <style>
      .cls-1 {
        fill: #ffba43;
        fill-rule: evenodd;
      }
    </style>
  </defs>
  <path id="LAGER" class="cls-1" d="M914.359,578.53H1093.57v-60.5H991.359V272.822h-77V578.53Zm176.451,0h70.13l15.12-67.375h71.5l14.67,67.375h72.88L1254.9,272.822h-80.67Zm98.09-123.75,22.91-102.667,22.46,102.667H1188.9Zm141.17-9.167q0,38.5,9.85,64.854t27.73,42.167q17.88,15.813,43.31,22.688t56.61,6.875a384.139,384.139,0,0,0,44-2.292q19.7-2.287,33.91-5.042V399.78h-94.87v56.375h30.25v66c-3.37.308-5.73,0.458-7.11,0.458h-4.35a124.19,124.19,0,0,1-22.92-2.062,42.154,42.154,0,0,1-19.7-9.4q-8.715-7.326-13.75-20.854-5.055-13.514-5.05-36.9V397.947q0-23.376,5.05-36.9,5.025-13.514,14.43-20.854a47.777,47.777,0,0,1,22.23-9.4,176.594,176.594,0,0,1,27.96-2.063,218.435,218.435,0,0,1,28.19,1.6,224.747,224.747,0,0,1,26.35,5.271V276.03a303.839,303.839,0,0,0-65.08-6.875q-31.17,0-56.61,6.875t-43.31,22.687q-17.865,15.813-27.5,42.167-9.615,26.361-9.62,64.854v39.875ZM1572.06,578.53h181.5V519.863H1645.4V452.03h94.87V393.363H1645.4V331.488h104.5V272.822H1572.06V578.53Zm198.92,0h72.42V465.322h28.41q14.2,0,18.11,9.625a58.4,58.4,0,0,1,3.89,22V578.53h72.42V491.905a92,92,0,0,0-5.5-32.542,47.134,47.134,0,0,0-18.79-23.375,62.241,62.241,0,0,0,24.98-29.1q7.56-18.1,7.56-42.854,0-91.2-92.58-91.208H1770.98V578.53Zm72.42-167.75V330.572h29.33q11.91,0,18.56,8.708t6.65,32.083q0,22-6.42,30.709a20.488,20.488,0,0,1-17.41,8.708H1843.4Z"/>
</svg>
