<svg width="59" height="59" viewBox="0 0 59 59" fill="none" xmlns="http://www.w3.org/2000/svg">
<path d="M48.6485 7.93158C43.5337 2.81679 36.7334 0 29.5 0C22.2666 0 15.4663 2.81679 10.3515 7.93158C5.23671 13.0463 2.41992 19.8467 2.41992 27.0801V48.0527C2.41992 54.0891 7.33087 59 13.3672 59C14.3218 59 15.0957 58.2261 15.0957 57.2715V50.2948C24.6606 47.7845 34.3394 47.7845 43.9043 50.2948V57.2715C43.9043 58.2261 44.6782 59 45.6328 59C51.6691 59 56.5801 54.0891 56.5801 48.0527V27.0801C56.5801 19.8467 53.7633 13.0463 48.6485 7.93158ZM40.9082 46.0629V40.5073C40.9082 39.5527 40.1343 38.7788 39.1797 38.7788C38.2251 38.7788 37.4512 39.5527 37.4512 40.5073V45.4926C36.453 45.3569 35.4543 45.2465 34.4551 45.1621V39.8542C34.4551 38.8996 33.6812 38.1256 32.7266 38.1256C31.772 38.1256 30.998 38.8996 30.998 39.8542V44.9725C29.9993 44.9471 29.0007 44.9471 28.002 44.9725V39.854C28.002 38.8994 27.228 38.1255 26.2734 38.1255C25.3188 38.1255 24.5449 38.8994 24.5449 39.854V45.1621C23.5457 45.2465 22.547 45.3569 21.5488 45.4926V40.5072C21.5488 39.5526 20.7749 38.7787 19.8203 38.7787C18.8657 38.7787 18.0918 39.5526 18.0918 40.5072V46.0629C17.0921 46.2581 16.0934 46.4799 15.0957 46.7265V24.0844C17.8533 23.7172 20.4427 22.4823 22.4643 20.5801L24.6602 23.5078C24.9866 23.9431 25.4988 24.1992 26.043 24.1992H32.957C33.5012 24.1992 34.0134 23.9431 34.3398 23.5078L36.5358 20.5801C38.5573 22.4823 41.1469 23.7172 43.9043 24.0844V46.7266C42.9066 46.4799 41.9079 46.2582 40.9082 46.0629ZM53.123 48.0527C53.123 51.5882 50.6611 54.5593 47.3613 55.3417V22.4707C47.3613 21.5161 46.5874 20.7422 45.6328 20.7422C42.5662 20.7422 39.6369 19.2776 37.7969 16.8242C37.4704 16.389 36.9582 16.1328 36.4141 16.1328C35.8699 16.1328 35.3577 16.389 35.0312 16.8242L32.0928 20.7422H26.9072L23.9688 16.8242C23.6423 16.389 23.1301 16.1328 22.5859 16.1328C22.0418 16.1328 21.5296 16.389 21.2031 16.8242C19.3631 19.2776 16.4338 20.7422 13.3672 20.7422C12.4126 20.7422 11.6387 21.5161 11.6387 22.4707V55.3417C8.33894 54.5593 5.87695 51.5882 5.87695 48.0527V27.0801C5.87695 14.0542 16.4743 3.45703 29.5 3.45703C42.5257 3.45703 53.123 14.0542 53.123 27.0801V48.0527Z" fill="white"/>
</svg>
