<svg width="18" height="18" viewBox="0 0 18 18" fill="none" xmlns="http://www.w3.org/2000/svg">
<path d="M12.9784 6.14424C13.2531 6.4189 13.2531 6.86412 12.9784 7.13864L8.26144 11.8558C7.98679 12.1303 7.5417 12.1303 7.26704 11.8558L5.02158 9.61015C4.74692 9.33563 4.74692 8.89041 5.02158 8.61589C5.2961 8.34123 5.74132 8.34123 6.01584 8.61589L7.76418 10.3642L11.984 6.14424C12.2587 5.86972 12.7039 5.86972 12.9784 6.14424ZM18 9C18 13.9747 13.9741 18 9 18C4.02525 18 0 13.9741 0 9C0 4.02525 4.02594 0 9 0C13.9747 0 18 4.02594 18 9ZM16.5938 9C16.5938 4.80254 13.1969 1.40625 9 1.40625C4.80254 1.40625 1.40625 4.80309 1.40625 9C1.40625 13.1975 4.80309 16.5938 9 16.5938C13.1975 16.5938 16.5938 13.1969 16.5938 9Z" fill="#16DB93"/>
</svg>
