<svg width="512" height="512" viewBox="0 0 512 512" fill="none" xmlns="http://www.w3.org/2000/svg">
<path d="M256 0C114.508 0 0 114.497 0 256C0 397.493 114.497 512 256 512C397.492 512 512 397.503 512 256C512 114.507 397.503 0 256 0ZM256 472C136.616 472 40 375.393 40 256C40 136.615 136.607 40 256 40C375.384 40 472 136.607 472 256C472 375.385 375.393 472 256 472Z" fill="#FF6161"/>
<path d="M343.586 315.302L284.284 256L343.586 196.698C351.396 188.888 351.397 176.225 343.587 168.414C335.775 160.603 323.112 160.604 315.303 168.414L256 227.716L196.697 168.414C188.888 160.603 176.223 160.603 168.413 168.414C160.603 176.225 160.603 188.888 168.414 196.698L227.716 256L168.414 315.302C160.603 323.113 160.602 335.776 168.413 343.586C176.226 351.398 188.889 351.395 196.697 343.586L256 284.284L315.303 343.586C323.111 351.396 335.776 351.397 343.587 343.586C351.398 335.775 351.397 323.112 343.586 315.302Z" fill="#FF6161"/>
</svg>
