<svg width="189" height="524" viewBox="0 0 189 524" fill="none" xmlns="http://www.w3.org/2000/svg">
<mask id="path-1-inside-1" fill="white">
<path d="M48.4341 493.326C45.0711 489.879 44.9995 488.542 48.5057 485.658C52.0118 482.703 55.8042 480.029 59.8828 476.934C57.8077 474.612 55.8758 472.22 53.586 470.039C50.3661 466.944 50.2945 466.1 54.1585 464.059C56.0189 463.145 56.3051 462.16 55.8758 460.12C51.7972 441.336 48.0763 422.481 46.2875 403.346C45.2142 391.315 44.7133 379.285 43.7115 367.255C42.4235 351.144 40.9209 335.104 39.5614 318.993C39.4183 317.094 38.7027 315.757 37.1285 314.561C32.3344 311.114 27.6118 307.596 22.9608 303.938C22.0305 303.234 21.2434 302.038 20.8857 300.913C19.0253 294.652 18.4528 288.249 18.2382 281.707C17.8804 270.31 16.664 258.983 15.8053 247.586C15.7338 246.953 15.6622 246.249 15.3044 245.757C11.7983 240.973 11.2974 235.345 11.0112 229.857C10.5818 220.782 10.2241 211.636 10.5103 202.561C10.6534 196.229 12.2991 189.897 12.5138 183.566C12.7285 175.686 12.2276 167.807 11.8698 159.927C11.7983 158.942 11.1543 157.817 10.4387 157.113C7.21879 154.158 3.92729 151.274 0.492676 148.249C2.20998 146.138 4.2135 143.676 6.07392 141.214C10.5818 135.163 13.5156 128.339 15.8769 121.304C19.4546 110.54 26.1807 102.45 36.2699 96.6806C45.5719 91.2635 54.3016 84.8615 63.3174 78.9519C64.5338 78.178 65.9649 77.2634 67.3245 77.1227C69.6142 76.8413 70.4013 75.8564 70.3298 73.6755C70.2582 71.7056 70.4013 69.8061 70.6875 67.8363C71.1884 63.6151 71.0453 59.5347 68.8987 55.6653C67.8969 53.7658 67.2529 51.7256 66.752 49.6854C66.1796 47.5748 65.7503 45.5346 62.101 46.3789C62.6019 43.002 62.3872 39.8361 63.6036 37.3034C65.8218 32.6602 63.8183 27.9466 64.677 23.3737C64.9632 21.8963 64.8201 20.4189 64.9632 18.9415C65.8218 10.9214 71.9755 6.98167 78.1292 3.253C85.4277 -1.17918 94.1574 -0.475659 100.597 5.08216C104.533 8.45906 107.967 12.3988 111.545 16.1978C112.046 16.7606 112.404 17.7455 112.404 18.5194C112.332 23.233 112.261 27.9466 111.974 32.5898C111.831 34.7004 111.116 36.811 113.262 38.4291C113.692 38.7808 114.121 39.5547 114.049 40.1175C113.692 44.1979 114.049 48.1377 111.116 51.9367C109.255 54.3287 108.969 58.1277 108.468 61.3639C108.11 63.6855 108.611 66.2182 108.397 68.6101C108.039 73.183 111.187 74.5901 114.121 75.786C121.706 78.8112 129.72 80.9218 136.732 85.4946C142.743 89.364 149.04 92.7409 155.05 96.6103C157.411 98.158 159.343 100.409 161.49 102.379C163.994 104.701 166.284 107.233 168.86 109.485C172.438 112.51 174.728 116.239 176.087 120.6C177.232 124.118 178.162 127.706 179.164 131.294C180.953 137.977 182.527 144.661 188.394 149.585C187.035 150.57 186.033 151.415 184.96 152.048C182.098 153.736 181.024 156.269 181.454 159.364C181.811 161.756 182.169 164.219 183.243 166.329C186.248 172.028 186.749 178.148 187.536 184.339C189.325 198.269 187.321 212.128 186.033 225.988C184.96 238.37 182.885 250.681 181.525 262.993C181.239 265.596 182.098 268.551 183.171 271.084C186.749 279.737 185.175 287.194 180.023 295.003C176.445 300.35 172.939 304.993 167.214 308.089C162.277 310.762 157.698 314.139 152.904 317.094C151.472 317.938 151.186 318.853 151.544 320.471C153.547 330.953 155.336 341.436 157.197 351.918C157.34 352.833 157.34 353.747 157.34 354.662C157.34 369.717 157.411 384.773 157.34 399.758C157.34 404.119 156.553 408.411 156.481 412.773C156.41 416.22 156.267 419.738 157.197 422.974C158.986 429.235 158.413 435.496 157.841 441.758C157.34 447.034 156.481 452.311 155.766 457.868C156.338 458.08 157.34 458.431 158.628 458.853C158.413 463.989 159.844 469.336 155.623 473.909C156.911 474.683 157.769 475.386 158.771 475.879C164.567 478.904 167.787 483.828 169.146 489.949C169.79 492.693 170.005 495.577 171.221 498.04C174.155 504.16 171.007 509.014 168.073 513.798C166.356 516.613 163.064 517.668 159.916 517.527C154.764 517.246 149.612 516.612 144.603 515.628C143.029 515.346 141.598 513.658 140.453 512.321C139.38 511.195 138.807 509.577 137.877 508.311C135.301 504.864 133.87 500.994 133.727 496.703C133.655 494.592 132.654 492.974 130.936 491.567C128.933 489.879 127.287 487.838 125.641 485.798C125.212 485.235 125.212 484.18 125.427 483.406C125.713 482.351 126.357 481.366 127.001 480.1C125.856 479.115 124.711 477.989 123.495 477.075C119.631 474.401 117.985 470.532 116.983 466.1C116.196 462.512 114.622 459.135 113.549 455.547C110.901 446.542 111.402 437.396 111.688 428.18C112.189 413.898 112.046 399.617 111.903 385.335C111.831 377.456 110.901 369.577 110.686 361.697C110.543 355.225 108.325 349.174 105.749 343.546C101.384 334.26 100.526 324.481 99.8102 314.632C99.6671 312.451 99.3808 310.199 98.7368 308.018C98.3791 312.521 98.0213 317.094 97.592 321.596C96.2324 337.004 94.8013 352.481 93.6565 367.958C93.2987 372.461 93.7996 377.034 93.7996 381.607C94.0142 398.773 94.0858 415.939 94.5867 433.105C94.8729 442.813 95.9462 452.522 96.8764 462.23C97.0195 463.989 97.9497 465.748 98.5937 467.507C99.9533 471.235 99.1662 474.12 95.66 476.23C93.8711 477.286 93.4418 478.552 93.3703 480.522C93.2987 483.266 93.2987 486.361 92.0823 488.683C90.8659 490.934 88.1468 492.341 86.0717 494.17C85.9286 494.311 85.7139 494.381 85.5708 494.381C79.4172 495.507 77.6999 499.728 77.5567 505.145C77.4852 506.834 77.199 508.452 76.8412 510.07C76.0541 513.728 74.0506 516.331 70.6875 518.231C63.5321 522.241 56.2335 524.562 48.0048 522.592C46.6452 522.241 45.2857 521.889 43.9977 521.326C37.2001 518.582 36.1268 515.909 38.2734 509.014C40.42 502.894 43.4253 497.547 48.4341 493.326ZM152.546 202.561C154.335 226.129 155.694 249.626 152.832 273.194C155.623 268.621 158.628 264.189 159.057 258.561C159.486 252.722 159.701 246.882 160.488 241.114C162.349 227.395 158.556 214.802 152.546 202.561ZM36.4845 224.792C36.1983 226.129 36.0552 226.762 35.9837 227.325C35.5543 234.923 35.0534 242.521 34.7672 250.119C34.6241 254.058 34.8388 258.068 35.2681 262.008C35.4112 263.486 36.6992 264.752 37.4863 266.159C38.4881 262.36 39.0605 259.053 39.3467 255.676C39.7045 252.088 39.776 248.501 39.9907 244.913C40.0622 242.732 40.1338 240.48 40.2054 238.299C40.2054 237.596 40.4916 236.752 40.2769 236.119C39.132 232.531 37.9156 229.083 36.4845 224.792Z"/>
</mask>
<path d="M48.4341 493.326C45.0711 489.879 44.9995 488.542 48.5057 485.658C52.0118 482.703 55.8042 480.029 59.8828 476.934C57.8077 474.612 55.8758 472.22 53.586 470.039C50.3661 466.944 50.2945 466.1 54.1585 464.059C56.0189 463.145 56.3051 462.16 55.8758 460.12C51.7972 441.336 48.0763 422.481 46.2875 403.346C45.2142 391.315 44.7133 379.285 43.7115 367.255C42.4235 351.144 40.9209 335.104 39.5614 318.993C39.4183 317.094 38.7027 315.757 37.1285 314.561C32.3344 311.114 27.6118 307.596 22.9608 303.938C22.0305 303.234 21.2434 302.038 20.8857 300.913C19.0253 294.652 18.4528 288.249 18.2382 281.707C17.8804 270.31 16.664 258.983 15.8053 247.586C15.7338 246.953 15.6622 246.249 15.3044 245.757C11.7983 240.973 11.2974 235.345 11.0112 229.857C10.5818 220.782 10.2241 211.636 10.5103 202.561C10.6534 196.229 12.2991 189.897 12.5138 183.566C12.7285 175.686 12.2276 167.807 11.8698 159.927C11.7983 158.942 11.1543 157.817 10.4387 157.113C7.21879 154.158 3.92729 151.274 0.492676 148.249C2.20998 146.138 4.2135 143.676 6.07392 141.214C10.5818 135.163 13.5156 128.339 15.8769 121.304C19.4546 110.54 26.1807 102.45 36.2699 96.6806C45.5719 91.2635 54.3016 84.8615 63.3174 78.9519C64.5338 78.178 65.9649 77.2634 67.3245 77.1227C69.6142 76.8413 70.4013 75.8564 70.3298 73.6755C70.2582 71.7056 70.4013 69.8061 70.6875 67.8363C71.1884 63.6151 71.0453 59.5347 68.8987 55.6653C67.8969 53.7658 67.2529 51.7256 66.752 49.6854C66.1796 47.5748 65.7503 45.5346 62.101 46.3789C62.6019 43.002 62.3872 39.8361 63.6036 37.3034C65.8218 32.6602 63.8183 27.9466 64.677 23.3737C64.9632 21.8963 64.8201 20.4189 64.9632 18.9415C65.8218 10.9214 71.9755 6.98167 78.1292 3.253C85.4277 -1.17918 94.1574 -0.475659 100.597 5.08216C104.533 8.45906 107.967 12.3988 111.545 16.1978C112.046 16.7606 112.404 17.7455 112.404 18.5194C112.332 23.233 112.261 27.9466 111.974 32.5898C111.831 34.7004 111.116 36.811 113.262 38.4291C113.692 38.7808 114.121 39.5547 114.049 40.1175C113.692 44.1979 114.049 48.1377 111.116 51.9367C109.255 54.3287 108.969 58.1277 108.468 61.3639C108.11 63.6855 108.611 66.2182 108.397 68.6101C108.039 73.183 111.187 74.5901 114.121 75.786C121.706 78.8112 129.72 80.9218 136.732 85.4946C142.743 89.364 149.04 92.7409 155.05 96.6103C157.411 98.158 159.343 100.409 161.49 102.379C163.994 104.701 166.284 107.233 168.86 109.485C172.438 112.51 174.728 116.239 176.087 120.6C177.232 124.118 178.162 127.706 179.164 131.294C180.953 137.977 182.527 144.661 188.394 149.585C187.035 150.57 186.033 151.415 184.96 152.048C182.098 153.736 181.024 156.269 181.454 159.364C181.811 161.756 182.169 164.219 183.243 166.329C186.248 172.028 186.749 178.148 187.536 184.339C189.325 198.269 187.321 212.128 186.033 225.988C184.96 238.37 182.885 250.681 181.525 262.993C181.239 265.596 182.098 268.551 183.171 271.084C186.749 279.737 185.175 287.194 180.023 295.003C176.445 300.35 172.939 304.993 167.214 308.089C162.277 310.762 157.698 314.139 152.904 317.094C151.472 317.938 151.186 318.853 151.544 320.471C153.547 330.953 155.336 341.436 157.197 351.918C157.34 352.833 157.34 353.747 157.34 354.662C157.34 369.717 157.411 384.773 157.34 399.758C157.34 404.119 156.553 408.411 156.481 412.773C156.41 416.22 156.267 419.738 157.197 422.974C158.986 429.235 158.413 435.496 157.841 441.758C157.34 447.034 156.481 452.311 155.766 457.868C156.338 458.08 157.34 458.431 158.628 458.853C158.413 463.989 159.844 469.336 155.623 473.909C156.911 474.683 157.769 475.386 158.771 475.879C164.567 478.904 167.787 483.828 169.146 489.949C169.79 492.693 170.005 495.577 171.221 498.04C174.155 504.16 171.007 509.014 168.073 513.798C166.356 516.613 163.064 517.668 159.916 517.527C154.764 517.246 149.612 516.612 144.603 515.628C143.029 515.346 141.598 513.658 140.453 512.321C139.38 511.195 138.807 509.577 137.877 508.311C135.301 504.864 133.87 500.994 133.727 496.703C133.655 494.592 132.654 492.974 130.936 491.567C128.933 489.879 127.287 487.838 125.641 485.798C125.212 485.235 125.212 484.18 125.427 483.406C125.713 482.351 126.357 481.366 127.001 480.1C125.856 479.115 124.711 477.989 123.495 477.075C119.631 474.401 117.985 470.532 116.983 466.1C116.196 462.512 114.622 459.135 113.549 455.547C110.901 446.542 111.402 437.396 111.688 428.18C112.189 413.898 112.046 399.617 111.903 385.335C111.831 377.456 110.901 369.577 110.686 361.697C110.543 355.225 108.325 349.174 105.749 343.546C101.384 334.26 100.526 324.481 99.8102 314.632C99.6671 312.451 99.3808 310.199 98.7368 308.018C98.3791 312.521 98.0213 317.094 97.592 321.596C96.2324 337.004 94.8013 352.481 93.6565 367.958C93.2987 372.461 93.7996 377.034 93.7996 381.607C94.0142 398.773 94.0858 415.939 94.5867 433.105C94.8729 442.813 95.9462 452.522 96.8764 462.23C97.0195 463.989 97.9497 465.748 98.5937 467.507C99.9533 471.235 99.1662 474.12 95.66 476.23C93.8711 477.286 93.4418 478.552 93.3703 480.522C93.2987 483.266 93.2987 486.361 92.0823 488.683C90.8659 490.934 88.1468 492.341 86.0717 494.17C85.9286 494.311 85.7139 494.381 85.5708 494.381C79.4172 495.507 77.6999 499.728 77.5567 505.145C77.4852 506.834 77.199 508.452 76.8412 510.07C76.0541 513.728 74.0506 516.331 70.6875 518.231C63.5321 522.241 56.2335 524.562 48.0048 522.592C46.6452 522.241 45.2857 521.889 43.9977 521.326C37.2001 518.582 36.1268 515.909 38.2734 509.014C40.42 502.894 43.4253 497.547 48.4341 493.326ZM152.546 202.561C154.335 226.129 155.694 249.626 152.832 273.194C155.623 268.621 158.628 264.189 159.057 258.561C159.486 252.722 159.701 246.882 160.488 241.114C162.349 227.395 158.556 214.802 152.546 202.561ZM36.4845 224.792C36.1983 226.129 36.0552 226.762 35.9837 227.325C35.5543 234.923 35.0534 242.521 34.7672 250.119C34.6241 254.058 34.8388 258.068 35.2681 262.008C35.4112 263.486 36.6992 264.752 37.4863 266.159C38.4881 262.36 39.0605 259.053 39.3467 255.676C39.7045 252.088 39.776 248.501 39.9907 244.913C40.0622 242.732 40.1338 240.48 40.2054 238.299C40.2054 237.596 40.4916 236.752 40.2769 236.119C39.132 232.531 37.9156 229.083 36.4845 224.792Z" fill="#57545A" fill-opacity="0.2" stroke="white" stroke-opacity="0.6" stroke-width="2" mask="url(#path-1-inside-1)"/>
</svg>
