<svg width="21" height="17" viewBox="0 0 21 17" fill="none" xmlns="http://www.w3.org/2000/svg">
<path d="M18.6408 0.907471H2.15641C1.88582 0.907471 1.6325 0.973994 1.40332 1.08364L10.3595 10.0399L12.3669 8.11067C12.3669 8.11067 12.3671 8.11048 12.3671 8.1104C12.3671 8.11032 12.3673 8.11025 12.3673 8.11025L19.3941 1.0838C19.1649 0.974072 18.9114 0.907471 18.6408 0.907471Z" fill="#2F2D2D"/>
<path d="M20.223 1.9126L13.6104 8.52486L20.2227 15.1372C20.3324 14.9081 20.3989 14.6547 20.3989 14.3842V2.66541C20.3989 2.39498 20.3325 2.1417 20.223 1.9126Z" fill="#2F2D2D"/>
<path d="M0.574609 1.91211C0.464961 2.14129 0.398438 2.39461 0.398438 2.6652V14.3839C0.398438 14.6544 0.464883 14.9077 0.574453 15.1368L7.18707 8.52457L0.574609 1.91211Z" fill="#2F2D2D"/>
<path d="M12.7818 9.35335L10.7741 11.2828C10.6597 11.3972 10.5097 11.4544 10.3598 11.4544C10.21 11.4544 10.06 11.3972 9.94559 11.2828L8.01606 9.35327L1.40332 15.9656C1.63254 16.0753 1.88602 16.1419 2.15668 16.1419H18.6411C18.9116 16.1419 19.165 16.0754 19.3941 15.9657L12.7818 9.35335Z" fill="#2F2D2D"/>
</svg>
