<svg width="21" height="16" viewBox="0 0 21 16" fill="none" xmlns="http://www.w3.org/2000/svg">
<path d="M19.4888 6.64143C18.7995 6.64143 18.2388 7.20213 18.2388 7.89143V9.14143H17.4054V7.57568C17.4054 7.13705 17.2276 6.70736 16.9172 6.39728L15.9829 5.46303C15.6728 5.15256 15.2431 4.97475 14.8045 4.97475H12.4054V3.30811H13.6554C14.3447 3.30811 14.9054 2.7474 14.9054 2.05811C14.9054 1.36881 14.3447 0.808105 13.6554 0.808105H8.65541C7.96611 0.808105 7.40541 1.36881 7.40541 2.05811C7.40541 2.7474 7.96611 3.30811 8.65541 3.30811H9.90541V4.97479H8.33967C7.90103 4.97479 7.47135 5.1526 7.16127 5.46307L5.98287 6.64146H5.32205C4.63275 6.64146 4.07205 7.20217 4.07205 7.89146V9.14147H3.23877V7.89146C3.23877 7.20217 2.67807 6.64146 1.98877 6.64146C1.29947 6.64146 0.73877 7.20217 0.73877 7.89146V12.8915C0.73877 13.5808 1.29947 14.1415 1.98877 14.1415C2.67807 14.1415 3.23877 13.5808 3.23877 12.8915V11.6415H4.07209V12.8915C4.07209 13.5808 4.63279 14.1415 5.32209 14.1415H5.98291L7.16131 15.3199C7.47139 15.6303 7.90107 15.8081 8.33971 15.8081H13.9712C14.4098 15.8081 14.8395 15.6303 15.1496 15.3199L16.9172 13.5523C17.2276 13.2422 17.4054 12.8125 17.4054 12.3739V11.6415H18.2388V12.8915C18.2388 13.5808 18.7995 14.1415 19.4888 14.1415C20.1781 14.1415 20.7388 13.5808 20.7388 12.8915V7.89146C20.7388 7.20217 20.1781 6.64143 19.4888 6.64143Z" fill="white"/>
</svg>
