<svg width="16" height="18" viewBox="0 0 16 18" fill="none" xmlns="http://www.w3.org/2000/svg">
<path d="M14.9462 2.90161L13.5295 1.48493C13.3912 1.34658 13.1671 1.34658 13.0287 1.48493C12.8904 1.62329 12.8904 1.84741 13.0287 1.98574L14.195 3.152L13.0287 4.31826C12.9623 4.38466 12.925 4.47458 12.925 4.56867V5.63117C12.925 6.41251 13.5604 7.04785 14.3417 7.04785V13.0687C14.3417 13.2641 14.1829 13.4229 13.9875 13.4229C13.7921 13.4229 13.6333 13.2641 13.6333 13.0687V12.3604C13.6333 11.7744 13.1567 11.2979 12.5708 11.2979H12.2167V2.08953C12.2167 1.30819 11.5813 0.672852 10.8 0.672852H3.71666C2.93535 0.672852 2.29998 1.30819 2.29998 2.08953V14.8395C1.51868 14.8395 0.883301 15.4749 0.883301 16.2562V17.3187C0.883301 17.5145 1.04171 17.6729 1.23748 17.6729H13.2792C13.4749 17.6729 13.6333 17.5145 13.6333 17.3187V16.2562C13.6333 15.4749 12.998 14.8395 12.2167 14.8395V12.0062H12.5708C12.7662 12.0062 12.925 12.165 12.925 12.3604V13.0687C12.925 13.6546 13.4016 14.1312 13.9875 14.1312C14.5734 14.1312 15.05 13.6546 15.05 13.0687V3.15203C15.05 3.05793 15.0126 2.96802 14.9462 2.90161ZM10.8 6.70025C10.8 6.89601 10.6416 7.05443 10.4458 7.05443H4.0708C3.87504 7.05443 3.71662 6.89601 3.71662 6.70025V2.44367C3.71662 2.24791 3.87504 2.0895 4.0708 2.0895H10.4458C10.6416 2.0895 10.8 2.24791 10.8 2.44367V6.70025Z" fill="white"/>
</svg>
