<svg width="17" height="21" viewBox="0 0 17 21" fill="none" xmlns="http://www.w3.org/2000/svg">
<path d="M6 8.50482C0.285714 4.76889 1 1.46402 2.14286 1.32033C3.28571 1.17664 7 1.89511 7.57143 4.62521C7.85714 5.99026 8.28571 6.97215 8.28571 7.21162C8.57143 5.34366 9.14286 4.76898 9.85714 3.6194C10.4485 2.66769 14.0294 -0.0868043 15.5714 1.46404C16.2857 2.18243 14.1429 7.49897 10.5714 8.50482H9.71429C11.2381 7.21159 12.5714 5.91842 12.5714 4.33788C12.5714 3.32184 13.2589 2.3857 11.8571 3.6194C10.7143 4.62523 8.90476 7.59476 8.57143 8.50482H8C7.90476 7.6427 6.71429 5.9184 6.14286 4.76888C5.37353 3.22126 3.34074 2.03878 2.57143 2.03878C2.28571 2.03878 3.28571 4.62519 4.71429 5.9184C5.85793 6.95368 6.33333 7.78637 7 8.50482H6Z" fill="#2F2D2D"/>
<path d="M16 8.93589V10.6601L9.42857 10.6601C9.42857 10.6601 8.87745 10.0457 8.28571 10.0853C7.73465 10.1223 7.28571 10.6601 7.28571 10.6601L1 10.6601V8.93589L7.28571 8.93589C7.28571 8.93589 7.73465 9.61739 8.28571 9.65434C8.87745 9.69402 9.42857 8.93589 9.42857 8.93589L16 8.93589Z" fill="#2F2D2D"/>
<path d="M2.71429 11.235H7.28571C7.28571 11.235 7.28571 15.1146 8.42857 15.1146C9.57143 15.1146 9.42857 11.235 9.42857 11.235H14.4286V14.8273C14.4286 14.8273 9 14.5399 9 15.5457C9 16.5515 14.4286 16.1205 14.4286 16.1205V20H9.42857C9.42857 20 9.42857 15.8331 8.42857 15.8331C7.42857 15.8331 7.28571 20 7.28571 20H2.71429V16.1205C2.71429 16.1205 7.85714 16.5515 7.85714 15.5457C7.85714 14.5399 2.71429 14.8273 2.71429 14.8273V11.235Z" fill="#2F2D2D"/>
<path d="M6 8.50482C0.285714 4.76889 1 1.46402 2.14286 1.32033C3.28571 1.17664 7 1.89511 7.57143 4.62521C7.85714 5.99026 8.28571 6.97215 8.28571 7.21162C8.57143 5.34366 9.14286 4.76898 9.85714 3.6194C10.4485 2.66769 14.0294 -0.0868043 15.5714 1.46404C16.2857 2.18243 14.1429 7.49897 10.5714 8.50482H9.71429C11.2381 7.21159 12.5714 5.91842 12.5714 4.33788C12.5714 3.32184 13.2589 2.3857 11.8571 3.6194C10.7143 4.62523 8.90476 7.59476 8.57143 8.50482H8C7.90476 7.6427 6.71429 5.9184 6.14286 4.76888C5.37353 3.22126 3.34074 2.03878 2.57143 2.03878C2.28571 2.03878 3.28571 4.62519 4.71429 5.9184C5.85793 6.95368 6.33333 7.78637 7 8.50482H6Z" stroke="#2F2D2D"/>
<path d="M16 8.93589V10.6601L9.42857 10.6601C9.42857 10.6601 8.87745 10.0457 8.28571 10.0853C7.73465 10.1223 7.28571 10.6601 7.28571 10.6601L1 10.6601V8.93589L7.28571 8.93589C7.28571 8.93589 7.73465 9.61739 8.28571 9.65434C8.87745 9.69402 9.42857 8.93589 9.42857 8.93589L16 8.93589Z" stroke="#2F2D2D"/>
<path d="M2.71429 11.235H7.28571C7.28571 11.235 7.28571 15.1146 8.42857 15.1146C9.57143 15.1146 9.42857 11.235 9.42857 11.235H14.4286V14.8273C14.4286 14.8273 9 14.5399 9 15.5457C9 16.5515 14.4286 16.1205 14.4286 16.1205V20H9.42857C9.42857 20 9.42857 15.8331 8.42857 15.8331C7.42857 15.8331 7.28571 20 7.28571 20H2.71429V16.1205C2.71429 16.1205 7.85714 16.5515 7.85714 15.5457C7.85714 14.5399 2.71429 14.8273 2.71429 14.8273V11.235Z" stroke="#2F2D2D"/>
</svg>
