<svg width="14" height="15" viewBox="0 0 14 15" fill="none" xmlns="http://www.w3.org/2000/svg">
<path d="M7.50865 8.17784L5.67369 6.33679C5.55501 6.21879 5.36329 6.21879 5.24461 6.33679L4.15216 7.42925C4.03416 7.54792 4.03416 7.73964 4.15216 7.85832L4.33778 8.04394L0.448757 11.936C0.39326 11.9919 0.36165 12.0672 0.360509 12.146L0.330078 13.7619C0.330078 13.9299 0.466331 14.0662 0.634384 14.0662H1.91247C1.99334 14.0666 2.07109 14.0349 2.12852 13.9779L2.84669 13.2597C2.90146 13.2046 2.93303 13.1305 2.93493 13.0528L2.95319 12.4016L3.47356 12.4655C3.56686 12.4767 3.66009 12.4441 3.72613 12.3773L4.17955 11.936C4.2296 11.8863 4.26079 11.8206 4.26779 11.7504L4.32561 11.1418L5.06812 10.9775C5.18824 10.9511 5.28071 10.855 5.30243 10.734L5.45154 9.90934L6.24882 9.78457C6.31219 9.77453 6.37077 9.74471 6.41619 9.69937L7.50865 8.60691C7.62664 8.48819 7.62664 8.29652 7.50865 8.17784Z" fill="white"/>
<path d="M13.2479 2.94988L10.8957 0.600636C10.3505 -0.0388629 9.39015 -0.11532 8.75069 0.429844C8.68933 0.482147 8.6322 0.539281 8.5799 0.600636L5.05909 4.12146C4.81169 4.37548 4.81169 4.78036 5.05909 5.03438L8.80204 8.77734C9.05606 9.02474 9.46094 9.02474 9.71496 8.77734L13.2479 5.26565C13.9722 4.5414 13.9722 3.67717 13.2479 2.94988ZM11.9351 4.45441C11.9335 4.45604 11.9319 4.45764 11.9303 4.45924L11.9333 4.47141C11.8147 4.5894 11.623 4.5894 11.5043 4.47141L9.38935 2.35648C9.26169 2.24716 9.24682 2.05507 9.35614 1.92741C9.46546 1.79975 9.65756 1.78488 9.78521 1.8942C9.79712 1.9044 9.80823 1.9155 9.81842 1.92741L11.9303 4.02408C12.0505 4.14158 12.0526 4.33424 11.9351 4.45441Z" fill="white"/>
</svg>
