<svg width="60" height="60" viewBox="0 0 60 60" fill="none" xmlns="http://www.w3.org/2000/svg">
<g clip-path="url(#clip0)">
<path d="M17.6953 1.27213V3.53256C18.0872 9.68307 20.7518 15.4688 24.9971 19.9187C22.5613 14.1856 21.2109 7.9834 21.2109 1.75781V0.391846L17.6953 1.27213Z" fill="white"/>
<path d="M42.3047 3.39201L42.3043 1.25243L38.7891 0.386337V1.7578C38.7891 7.98201 37.4396 14.1824 35.0048 19.915C39.256 15.455 41.9156 9.64323 42.3047 3.39201Z" fill="white"/>
<path d="M35.2734 1.75781V0H24.7266V1.75781C24.7266 13.3415 29.7702 21.8243 30 22.4364C30.509 21.0796 35.2734 14.2241 35.2734 1.75781Z" fill="white"/>
<path d="M5.39056 52.8516H10.664V45.8203H2.86096L3.65015 51.3428C3.77328 52.2079 4.51486 52.8516 5.39056 52.8516Z" fill="white"/>
<path d="M0.0529918 27.4571L2.35875 42.3047H10.664V22.8516C10.664 21.8806 11.4508 21.0937 12.4218 21.0937C13.3927 21.0937 14.1796 21.8806 14.1796 22.8516V46.8503L21.7258 39.304C22.4125 38.6174 23.5248 38.6174 24.2115 39.304C24.8981 39.9907 24.8981 41.1031 24.2115 41.7897L14.1796 51.8216V58.2422C14.1796 59.2131 14.9665 60 15.9374 60H28.2421V27.2465L26.1322 25.6631C19.1271 20.4108 14.8497 12.3839 14.2968 3.64426V2.16568L10.5523 3.10364C8.83198 3.54126 7.44725 4.81567 6.86863 6.49383L0.288282 24.9925C0.0149974 25.7835 -0.065569 26.6286 0.0529918 27.4571Z" fill="white"/>
<path d="M49.3359 45.8203V52.8516H54.6094C55.4851 52.8516 56.2267 52.2079 56.3503 51.3428L57.139 45.8203H49.3359Z" fill="white"/>
<path d="M59.9474 27.4383C60.0627 26.6299 59.9886 25.806 59.7304 25.0314L53.372 6.55012C52.8017 4.83855 51.3963 3.53758 49.6468 3.10042L45.7031 2.13042V3.50188C44.7235 19.3606 32.2737 26.6757 31.7578 27.2461V60H44.0625C45.0334 60 45.8203 59.2131 45.8203 58.2422V51.8216L35.7884 41.7897C35.1018 41.103 35.1018 39.9907 35.7884 39.304C36.4751 38.6174 37.5874 38.6174 38.2741 39.304L45.8203 46.8503V22.8515C45.8203 21.8806 46.6072 21.0937 47.5781 21.0937C48.549 21.0937 49.3359 21.8806 49.3359 22.8515V42.3047H57.6416L59.9474 27.4383Z" fill="white"/>
</g>
<defs>
<clipPath id="clip0">
<rect width="60" height="60" fill="white"/>
</clipPath>
</defs>
</svg>
