<svg width="17" height="20" viewBox="0 0 17 20" fill="none" xmlns="http://www.w3.org/2000/svg">
<path d="M8.27893 9.75235C9.53642 9.75235 10.6253 9.30134 11.515 8.4115C12.4047 7.52181 12.8557 6.43322 12.8557 5.17559C12.8557 3.91839 12.4047 2.82966 11.5149 1.93967C10.625 1.05013 9.53627 0.599121 8.27893 0.599121C7.02129 0.599121 5.93269 1.05013 5.043 1.93982C4.1533 2.82951 3.70215 3.91825 3.70215 5.17559C3.70215 6.43322 4.1533 7.52196 5.04314 8.41165C5.93298 9.3012 7.02173 9.75235 8.27893 9.75235Z" fill="#2F2D2D"/>
<path d="M16.2871 15.2106C16.2614 14.8404 16.2095 14.4365 16.1331 14.01C16.056 13.5803 15.9567 13.1741 15.8378 12.8028C15.715 12.4191 15.548 12.0401 15.3415 11.677C15.1273 11.3 14.8756 10.9718 14.5932 10.7017C14.2979 10.4192 13.9363 10.192 13.5182 10.0263C13.1016 9.86148 12.6398 9.77798 12.1459 9.77798C11.9519 9.77798 11.7644 9.85757 11.4021 10.0934C11.1791 10.2388 10.9183 10.407 10.6272 10.593C10.3783 10.7516 10.0411 10.9002 9.62456 11.0347C9.2182 11.1662 8.80561 11.2329 8.39839 11.2329C7.99116 11.2329 7.57871 11.1662 7.17192 11.0347C6.75585 10.9003 6.41864 10.7518 6.17002 10.5932C5.88167 10.4089 5.62072 10.2407 5.39441 10.0933C5.03256 9.85742 4.84482 9.77783 4.65085 9.77783C4.15679 9.77783 3.69519 9.86148 3.27869 10.0265C2.86088 10.1919 2.49917 10.419 2.20357 10.7019C1.92131 10.9721 1.66949 11.3002 1.45552 11.677C1.24922 12.0401 1.08221 12.4189 0.959275 12.803C0.840543 13.1742 0.741237 13.5803 0.664111 14.01C0.587711 14.4359 0.535811 14.84 0.510151 15.2111C0.484926 15.5747 0.472168 15.952 0.472168 16.3332C0.472168 17.3251 0.787483 18.1281 1.40927 18.7203C2.02337 19.3047 2.83594 19.6011 3.82407 19.6011H12.9736C13.9617 19.6011 14.774 19.3048 15.3882 18.7203C16.0102 18.1285 16.3255 17.3254 16.3255 16.333C16.3253 15.9502 16.3124 15.5725 16.2871 15.2106Z" fill="#2F2D2D"/>
</svg>
