<svg width="20" height="20" viewBox="0 0 20 20" fill="none" xmlns="http://www.w3.org/2000/svg">
<path d="M16.4 10.3294C16.4 9.92942 16.0942 9.62354 15.6942 9.62354C15.2942 9.62354 14.9883 9.92942 14.9883 10.3294C14.9883 13.0824 12.753 15.3177 10 15.3177C7.2471 15.3177 5.0118 13.0824 5.0118 10.3294C5.0118 9.92942 4.70592 9.62354 4.30592 9.62354C3.90592 9.62354 3.60004 9.92942 3.60004 10.3294C3.60004 13.6 6.0471 16.3529 9.29415 16.7059V18.5882H6.72945C6.32945 18.5882 6.02357 18.8941 6.02357 19.2941C6.02357 19.6941 6.32945 20 6.72945 20H13.2706C13.6706 20 13.9765 19.6941 13.9765 19.2941C13.9765 18.8941 13.6706 18.5882 13.2706 18.5882H10.7059V16.7059C13.953 16.3529 16.4 13.6 16.4 10.3294Z" fill="white" fill-opacity="0.2"/>
<path d="M9.99985 0C7.83514 0 6.07043 1.76471 6.07043 3.92941V10.3059C6.07043 12.4941 7.83514 14.2353 9.99985 14.2588C12.1646 14.2588 13.9293 12.4941 13.9293 10.3294V3.92941C13.9293 1.76471 12.1646 0 9.99985 0Z" fill="white" fill-opacity="0.2"/>
</svg>
