<svg width="13" height="13" viewBox="0 0 13 13" fill="none" xmlns="http://www.w3.org/2000/svg">
<g clip-path="url(#clip0)">
<path d="M11.7351 10.4456L7.02964 5.74018L1.53214 0.242676H1.1025L1.01478 0.46559C0.783238 1.05396 0.684308 1.65575 0.728722 2.2058C0.779347 2.8328 1.01754 3.37564 1.4176 3.77569L5.70924 8.06733L6.2753 7.50127L10.2429 11.9378C10.6376 12.3325 11.3169 12.3559 11.7351 11.9378C12.1465 11.5264 12.1465 10.857 11.7351 10.4456Z" fill="black"/>
<path d="M3.72054 7.07324L0.359347 10.4344C-0.0520282 10.8458 -0.0520282 11.5152 0.359347 11.9266C0.750144 12.3174 1.4262 12.3519 1.8515 11.9266L5.21271 8.56537L3.72054 7.07324Z" fill="black"/>
<path d="M11.5375 2.24078L9.63082 4.14742L9.1334 3.65003L11.0401 1.74337L10.5427 1.24598L8.63604 3.15262L8.13865 2.65523L10.0453 0.748588L9.54794 0.251221L7.06099 2.73817C6.75675 3.04242 6.57508 3.44638 6.5494 3.87571C6.5429 3.98449 6.51825 4.09148 6.47735 4.19324L8.09287 5.80877C8.19464 5.76782 8.30165 5.74319 8.4104 5.7367C8.83973 5.71108 9.2437 5.52937 9.54794 5.22513L12.0349 2.7382L11.5375 2.24078Z" fill="black"/>
</g>
<defs>
<clipPath id="clip0">
<rect width="12" height="12" fill="white" transform="translate(0.0471802 0.242676)"/>
</clipPath>
</defs>
</svg>
