<svg width="13" height="12" viewBox="0 0 13 12" fill="none" xmlns="http://www.w3.org/2000/svg">
<g clip-path="url(#clip0)">
<path d="M8.62112 3.3463C7.77026 1.94191 6.82389 0.726426 6.33546 0.126873C6.2701 0.0465795 6.17203 -3.12876e-05 6.06851 1.57572e-08C5.96496 1.57572e-08 5.86691 0.0466108 5.80152 0.126904C5.31312 0.726646 4.36676 1.94253 3.5159 3.34705C2.4194 5.15711 1.86342 6.65363 1.86342 7.79495C1.86342 10.1136 3.7498 12 6.06848 12C8.38716 12 10.2735 10.1136 10.2735 7.79495C10.2736 6.65288 9.71765 5.15614 8.62112 3.3463ZM6.64553 10.4512C6.39998 10.514 6.14511 10.5458 5.88783 10.5458C4.31683 10.5458 3.03874 9.35849 3.03874 7.8991C3.03874 7.54678 3.13171 7.13514 3.31499 6.67567C3.34595 6.59803 3.43416 6.55374 3.52113 6.57252C3.60802 6.59124 3.66637 6.667 3.65742 6.74939C3.64672 6.84793 3.64127 6.94419 3.64127 7.03537C3.64127 8.62355 4.92099 9.95351 6.61801 10.1288C6.70247 10.1375 6.76836 10.2007 6.77509 10.2794C6.78185 10.3582 6.72745 10.4302 6.64553 10.4512Z" fill="black"/>
</g>
<defs>
<clipPath id="clip0">
<rect width="12" height="12" fill="white" transform="translate(0.0684814)"/>
</clipPath>
</defs>
</svg>
