<svg width="16" height="16" fill="#ff8800" xmlns="http://www.w3.org/2000/svg">
 <!-- Created with Method Draw - http://github.com/duopixel/Method-Draw/ -->

 <g>
  <title>background</title>
  <rect fill="none" id="canvas_background" height="18" width="18" y="-1" x="-1"/>
  <g display="none" overflow="visible" y="0" x="0" height="100%" width="100%" id="canvasGrid">
   <rect fill="url(#gridpattern)" stroke-width="0" y="0" x="0" height="100%" width="100%"/>
  </g>
 </g>
 <g>
  <title>Layer 1</title>
  <g stroke="null" id="svg_24">
   <g stroke="null" transform="matrix(0.15487577609384504,0,0,0.16210939568148652,32.05503507906647,41.191330388726094) " id="svg_5">
    <g stroke="null" id="svg_6">
     <path fill="#ffffff" stroke="null" id="svg_7" d="m-143.56895,-252.25622c-0.377,-0.387 -0.894,-0.605 -1.434,-0.605l-22.402,0c-0.54,0 -1.057,0.219 -1.434,0.605c-0.378,0.386 -0.58,0.91 -0.565,1.45l1.68,60.798c0.029,1.082 0.916,1.943 1.999,1.943l19.046,0c1.083,0 1.971,-0.861 1.999,-1.945l1.677,-60.796c0.014,-0.539 -0.189,-1.063 -0.566,-1.45z"/>
     <path fill="#ffffff" stroke="null" id="svg_8" d="m-146.71995,-177.82722l-18.967,0c-1.104,0 -2,0.896 -2,2l0,17.54c0,1.104 0.896,2 2,2l18.969,0c1.104,0 2,-0.896 2,-2l0,-17.54c-0.002,-1.104 -0.896,-2 -2.002,-2z"/>
    </g>
   </g>
   <g stroke="null" transform="matrix(0.15487577609384504,0,0,0.16210939568148652,32.05503507906647,41.191330388726094) " id="svg_9"/>
   <g stroke="null" transform="matrix(0.15487577609384504,0,0,0.16210939568148652,32.05503507906647,41.191330388726094) " id="svg_10"/>
   <g stroke="null" transform="matrix(0.15487577609384504,0,0,0.16210939568148652,32.05503507906647,41.191330388726094) " id="svg_11"/>
   <g stroke="null" transform="matrix(0.15487577609384504,0,0,0.16210939568148652,32.05503507906647,41.191330388726094) " id="svg_12"/>
   <g stroke="null" transform="matrix(0.15487577609384504,0,0,0.16210939568148652,32.05503507906647,41.191330388726094) " id="svg_13"/>
   <g stroke="null" transform="matrix(0.15487577609384504,0,0,0.16210939568148652,32.05503507906647,41.191330388726094) " id="svg_14"/>
   <g stroke="null" transform="matrix(0.15487577609384504,0,0,0.16210939568148652,32.05503507906647,41.191330388726094) " id="svg_15"/>
   <g stroke="null" transform="matrix(0.15487577609384504,0,0,0.16210939568148652,32.05503507906647,41.191330388726094) " id="svg_16"/>
   <g stroke="null" transform="matrix(0.15487577609384504,0,0,0.16210939568148652,32.05503507906647,41.191330388726094) " id="svg_17"/>
   <g stroke="null" transform="matrix(0.15487577609384504,0,0,0.16210939568148652,32.05503507906647,41.191330388726094) " id="svg_18"/>
   <g stroke="null" transform="matrix(0.15487577609384504,0,0,0.16210939568148652,32.05503507906647,41.191330388726094) " id="svg_19"/>
   <g stroke="null" transform="matrix(0.15487577609384504,0,0,0.16210939568148652,32.05503507906647,41.191330388726094) " id="svg_20"/>
   <g stroke="null" transform="matrix(0.15487577609384504,0,0,0.16210939568148652,32.05503507906647,41.191330388726094) " id="svg_21"/>
   <g stroke="null" transform="matrix(0.15487577609384504,0,0,0.16210939568148652,32.05503507906647,41.191330388726094) " id="svg_22"/>
   <g stroke="null" transform="matrix(0.15487577609384504,0,0,0.16210939568148652,32.05503507906647,41.191330388726094) " id="svg_23"/>
  </g>
 </g>
</svg>