<svg width="16" height="21" viewBox="0 0 16 21" fill="none" xmlns="http://www.w3.org/2000/svg">
<path d="M13.5798 8.27539H12.953V5.76823C12.953 3.00283 10.7041 0.753906 7.93872 0.753906C5.17332 0.753906 2.9244 3.00283 2.9244 5.76823V8.27539H2.29761C1.26131 8.27539 0.417236 9.11863 0.417236 10.1558V18.9308C0.417236 19.9679 1.26131 20.8112 2.29761 20.8112H13.5798C14.6161 20.8112 15.4602 19.9679 15.4602 18.9308V10.1558C15.4602 9.11863 14.6161 8.27539 13.5798 8.27539ZM4.59584 5.76823C4.59584 3.92463 6.09512 2.42535 7.93872 2.42535C9.78232 2.42535 11.2816 3.92463 11.2816 5.76823V8.27539H4.59584V5.76823ZM8.77444 14.7288V16.6326C8.77444 17.0939 8.40087 17.4683 7.93872 17.4683C7.47656 17.4683 7.103 17.0939 7.103 16.6326V14.7288C6.60574 14.4388 6.26728 13.9056 6.26728 13.2897C6.26728 12.3679 7.01692 11.6183 7.93872 11.6183C8.86052 11.6183 9.61016 12.3679 9.61016 13.2897C9.61016 13.9056 9.27169 14.4388 8.77444 14.7288Z" fill="#2F2D2D"/>
</svg>
