<svg width="22" height="23" viewBox="0 0 22 23" fill="none" xmlns="http://www.w3.org/2000/svg">
<g clip-path="url(#clip0)">
<path d="M20.0241 7.80954H16.5007V1.79512C16.5007 1.25509 16.2264 0.763194 15.767 0.47926C15.3078 0.19537 14.7451 0.170019 14.2621 0.411543C14.2559 0.414636 14.2498 0.417816 14.2437 0.421081L1.49161 7.28404C0.57213 7.77891 0.000911713 8.73503 0.000911713 9.7792V9.78608V10.2158V20.2703C0.000911713 21.3602 0.887603 22.2468 1.97745 22.2468H20.0241C21.1139 22.2468 22.0006 21.3602 22.0006 20.2703V9.78608C22.0006 8.69623 21.1139 7.80954 20.0241 7.80954ZM14.9109 7.80954H4.26907C4.04585 7.80954 3.9707 7.5113 4.16723 7.40551L14.883 1.6385C14.9512 1.60713 15.0081 1.62664 15.0441 1.64894C15.0814 1.67193 15.1257 1.71597 15.1257 1.79516V7.59474C15.1257 7.71338 15.0295 7.80954 14.9109 7.80954ZM17.8757 16.4032C17.1175 16.4032 16.5007 15.7864 16.5007 15.0282C16.5007 14.27 17.1175 13.6532 17.8757 13.6532C18.6338 13.6532 19.2506 14.27 19.2506 15.0282C19.2506 15.7864 18.6338 16.4032 17.8757 16.4032Z" fill="white"/>
</g>
<defs>
<clipPath id="clip0">
<rect width="22" height="22" fill="white" transform="translate(0 0.246826)"/>
</clipPath>
</defs>
</svg>
