<?xml version="1.0" encoding="UTF-8"?>
<!DOCTYPE svg PUBLIC "-//W3C//DTD SVG 1.1//EN" "http://www.w3.org/Graphics/SVG/1.1/DTD/svg11.dtd">
<!-- Creator: CorelDRAW X8 -->
<svg xmlns="http://www.w3.org/2000/svg" xml:space="preserve" width="8.5mm" height="8.5mm" version="1.1" style="shape-rendering:geometricPrecision; text-rendering:geometricPrecision; image-rendering:optimizeQuality; fill-rule:evenodd; clip-rule:evenodd"
viewBox="0 0 850 850"
 xmlns:xlink="http://www.w3.org/1999/xlink">
 <defs>
  <style type="text/css">
   <![CDATA[
    .fil0 {fill:#020203}
   ]]>
  </style>
 </defs>
 <g id="Слой_x0020_1">
  <metadata id="CorelCorpID_0Corel-Layer"/>
  <g id="_2293505183280">
   <path class="fil0" d="M72 298l650 0 0 254 -650 0 0 -254zm0 0z"/>
   <path class="fil0" d="M778 326l57 0 0 198 -57 0 0 -198zm0 0z"/>
   <g>
    <path class="fil0" d="M72 566l650 0c7,0 14,-6 14,-14l0 -254c0,-8 -7,-14 -14,-14l-650 0c-8,0 -14,6 -14,14l0 254c0,8 6,14 14,14zm14 -254l622 0 0 226 -622 0 0 -226zm0 0z"/>
    <path class="fil0" d="M835 312l-43 0 0 -71c0,-7 -6,-14 -14,-14l-763 0c-7,0 -14,7 -14,14l0 368c0,7 7,14 14,14l763 0c8,0 14,-7 14,-14l0 -71 43 0c8,0 14,-6 14,-14l0 -198c0,-8 -6,-14 -14,-14l0 0zm-71 283l-735 0 0 -340 735 0 0 340zm57 -85l-29 0 0 -170 29 0 0 170zm0 0z"/>
   </g>
  </g>
 </g>
</svg>
