<svg width="30" height="31" viewBox="0 0 30 31" fill="none" xmlns="http://www.w3.org/2000/svg">
<g clip-path="url(#clip0)">
<path d="M8.84766 0.889359V2.01958C9.04358 5.09483 10.3759 7.98767 12.4986 10.2126C11.2807 7.34612 10.6055 4.245 10.6055 1.1322V0.449219L8.84766 0.889359Z" fill="#fff"/>
<path d="M21.1524 1.94928L21.1522 0.879486L19.3946 0.446442V1.13217C19.3946 4.24428 18.7199 7.34448 17.5024 10.2108C19.6281 7.98077 20.9579 5.07489 21.1524 1.94928Z" fill="#fff"/>
<path d="M17.6367 1.1322V0.253296H12.3633V1.1322C12.3633 6.92406 14.8851 11.1655 15 11.4715C15.2545 10.7931 17.6367 7.36534 17.6367 1.1322Z" fill="#fff"/>
<path d="M2.69534 26.6791H5.33206V23.1635H1.43054L1.82513 25.9247C1.8867 26.3573 2.25749 26.6791 2.69534 26.6791Z" fill="#fff"/>
<path d="M0.0264349 13.9818L1.17931 21.4056H5.33192V11.6791C5.33192 11.1936 5.72536 10.8002 6.21082 10.8002C6.69628 10.8002 7.08973 11.1936 7.08973 11.6791V23.6784L10.8628 19.9053C11.2062 19.562 11.7624 19.562 12.1057 19.9053C12.449 20.2486 12.449 20.8048 12.1057 21.1481L7.08973 26.1641V29.3744C7.08973 29.8598 7.48318 30.2533 7.96863 30.2533H14.121V13.8766L13.0661 13.0849C9.56348 10.4587 7.42481 6.44522 7.14832 2.07541V1.33612L5.27607 1.8051C4.41593 2.02391 3.72356 2.66112 3.43426 3.5002L0.14408 12.7495C0.00743765 13.145 -0.0328455 13.5676 0.0264349 13.9818Z" fill="#fff"/>
<path d="M24.668 23.1635V26.6791H27.3047C27.7425 26.6791 28.1133 26.3573 28.1751 25.9247L28.5695 23.1635H24.668Z" fill="#fff"/>
<path d="M29.9737 13.9725C30.0314 13.5683 29.9943 13.1563 29.8652 12.769L26.686 3.52837C26.4008 2.67258 25.6982 2.02209 24.8234 1.80351L22.8516 1.31851V2.00424C22.3618 9.93362 16.1369 13.5912 15.8789 13.8763V30.2533H22.0313C22.5167 30.2533 22.9102 29.8598 22.9102 29.3744V26.1641L17.8942 21.1481C17.5509 20.8048 17.5509 20.2486 17.8942 19.9053C18.2375 19.562 18.7937 19.562 19.137 19.9053L22.9102 23.6784V11.6791C22.9102 11.1936 23.3036 10.8002 23.7891 10.8002C24.2745 10.8002 24.668 11.1936 24.668 11.6791V21.4056H28.8208L29.9737 13.9725Z" fill="#fff"/>
</g>
<defs>
<clipPath id="clip0">
<rect width="30" height="30" fill="white" transform="translate(0 0.253296)"/>
</clipPath>
</defs>
</svg>
