<svg width="41" height="41" viewBox="0 0 41 41" fill="none" xmlns="http://www.w3.org/2000/svg">
<g clip-path="url(#clip0)">
<path d="M12.4992 20.92C14.34 20.92 15.8323 19.4277 15.8323 17.5869C15.8323 15.7461 14.34 14.2538 12.4992 14.2538C10.6584 14.2538 9.16614 15.7461 9.16614 17.5869C9.16614 19.4277 10.6584 20.92 12.4992 20.92Z" fill="#FFB943"/>
<path d="M23.9135 16.1436L23.4936 16.0909C22.4144 15.9556 21.5204 15.2763 21.1591 14.3171C21.0964 14.1511 21.0291 13.9871 20.9564 13.8237C20.5245 12.8532 20.6865 11.6973 21.3791 10.8074L21.5911 10.5347C21.7971 10.2694 21.7737 9.89213 21.5358 9.6541L20.4306 8.54888C20.1932 8.31156 19.8153 8.28828 19.5493 8.4942L19.2773 8.70551C18.3881 9.39811 17.2315 9.56075 16.2609 9.12813C16.0976 9.05548 15.933 8.98814 15.767 8.92549C14.8084 8.56419 14.1284 7.66958 13.9938 6.591L13.9411 6.17103C13.8998 5.8377 13.6158 5.5871 13.2798 5.5871H11.7166C11.3806 5.5871 11.0967 5.83708 11.0553 6.17103L11.0027 6.591C10.8674 7.6702 10.1881 8.56482 9.22947 8.92549C9.06284 8.98814 8.89817 9.05548 8.73552 9.12813C7.76428 9.55809 6.60836 9.39748 5.71914 8.70551L5.44713 8.49349C5.18184 8.28617 4.80382 8.31015 4.5665 8.54818L3.45995 9.6534C3.222 9.89072 3.19865 10.268 3.40464 10.534L3.61666 10.8067C4.30925 11.6966 4.47057 12.8525 4.03928 13.8237C3.96663 13.9871 3.89929 14.1511 3.83664 14.3171C3.47534 15.2757 2.58073 15.9556 1.50215 16.0903L1.08218 16.1429C0.748851 16.1843 0.498169 16.4682 0.498169 16.8042V18.3674C0.498169 18.7034 0.748773 18.9874 1.0821 19.0287L1.50137 19.0814C2.58057 19.2167 3.47518 19.896 3.83648 20.8552C3.89913 21.0212 3.96647 21.1852 4.03912 21.3485C4.47041 22.3191 4.3091 23.475 3.6165 24.3649L3.40519 24.6375C3.19857 24.9028 3.22255 25.2801 3.4605 25.5182L4.56572 26.6234C4.80304 26.862 5.18098 26.8854 5.44635 26.6787L5.71836 26.4674C6.60828 25.7748 7.7642 25.6121 8.73474 26.0448C8.89809 26.1174 9.06268 26.1847 9.22869 26.2474C10.1873 26.6087 10.8672 27.5033 11.0019 28.5819L11.0545 29.0019C11.0959 29.3352 11.3798 29.5858 11.7158 29.5858H13.279C13.615 29.5858 13.899 29.3358 13.9403 29.0019L13.993 28.5819C14.1276 27.5027 14.8076 26.6081 15.7662 26.2474C15.9328 26.1847 16.0975 26.1174 16.2601 26.0448C17.2307 25.6135 18.3866 25.7748 19.2772 26.4674L19.5492 26.6787C19.8139 26.8847 20.1918 26.8613 20.4299 26.6234L21.5351 25.5182C21.7737 25.2808 21.7977 24.9042 21.5911 24.6382L21.3791 24.3656C20.6865 23.4757 20.5245 22.3198 20.9564 21.3485C21.0285 21.1852 21.0964 21.0212 21.1591 20.8552C21.5204 19.8966 22.415 19.2167 23.4936 19.082L23.9135 19.0293C24.2469 18.988 24.4975 18.704 24.4975 18.3681V16.8048C24.4975 16.4689 24.2475 16.1849 23.9135 16.1436ZM12.4992 22.253C9.92605 22.253 7.83294 20.1599 7.83294 17.5868C7.83294 15.0137 9.92613 12.9205 12.4992 12.9205C15.0723 12.9205 17.1654 15.0137 17.1654 17.5868C17.1654 20.1599 15.0723 22.253 12.4992 22.253Z" fill="white"/>
<path d="M30.4977 32.9189C31.9703 32.9189 33.1641 31.7251 33.1641 30.2524C33.1641 28.7798 31.9703 27.586 30.4977 27.586C29.0251 27.586 27.8313 28.7798 27.8313 30.2524C27.8313 31.7251 29.0251 32.9189 30.4977 32.9189Z" fill="#FFB943"/>
<path d="M39.9128 28.9472L39.5669 28.9038C38.7216 28.7978 38.0217 28.2673 37.7397 27.5193C37.6876 27.3806 37.631 27.2427 37.5704 27.1053C37.2324 26.3454 37.3604 25.4395 37.9037 24.7415L38.0784 24.5176C38.285 24.2523 38.261 23.8743 38.0237 23.6369L37.1131 22.727C36.8758 22.4891 36.4984 22.4657 36.2332 22.6717L36.0085 22.8464C35.3099 23.3897 34.4039 23.517 33.644 23.1797C33.5074 23.1191 33.37 23.0631 33.2307 23.0104C32.4821 22.7284 31.9515 22.0285 31.8461 21.1839L31.8027 20.838C31.7614 20.504 31.4775 20.254 31.1415 20.254H29.8542C29.5182 20.254 29.2343 20.504 29.1923 20.838L29.1496 21.1839C29.0436 22.0292 28.513 22.7291 27.7644 23.0111C27.6257 23.0638 27.4878 23.1198 27.3518 23.1804C26.5911 23.517 25.6859 23.3904 24.9867 22.8465L24.7627 22.6725C24.4974 22.4665 24.1201 22.4912 23.8828 22.7278L22.9728 23.6377C22.7349 23.8751 22.7115 24.253 22.9175 24.5184L23.0922 24.7423C23.6355 25.4409 23.7635 26.3469 23.4255 27.1068C23.3648 27.2434 23.3089 27.3815 23.2569 27.5194C22.9749 28.268 22.2743 28.7986 21.4291 28.9046L21.0831 28.948C20.7498 28.9893 20.4991 29.2733 20.4991 29.6093V30.8965C20.4991 31.2325 20.7491 31.5164 21.0831 31.5578L21.4291 31.6011C22.2743 31.7071 22.9743 32.2377 23.2563 32.9857C23.3089 33.1244 23.3649 33.2623 23.4255 33.3996C23.7635 34.1596 23.6355 35.0655 23.0922 35.7634L22.9175 35.9874C22.7109 36.2527 22.7349 36.6307 22.9728 36.868L23.8828 37.7779C24.1207 38.0153 24.4974 38.0392 24.7627 37.8333L24.9874 37.6586C25.686 37.1153 26.5919 36.9879 27.3519 37.3252C27.4885 37.3859 27.6258 37.4419 27.7645 37.4945C28.5131 37.7765 29.0437 38.4765 29.1497 39.321L29.1923 39.667C29.2337 40.001 29.5176 40.2509 29.8543 40.2509H31.1415C31.4775 40.2509 31.7615 40.001 31.8028 39.667L31.8455 39.321C31.9515 38.4758 32.4821 37.7758 33.2314 37.4932C33.37 37.4405 33.508 37.3845 33.644 37.3239C34.4039 36.986 35.3099 37.1132 36.0085 37.6579L36.2324 37.8318C36.4977 38.0378 36.875 38.0139 37.1124 37.7765L38.0229 36.8666C38.2602 36.6293 38.2842 36.2514 38.0776 35.986L37.9029 35.762C37.3596 35.0634 37.2323 34.1575 37.5696 33.3975C37.6303 33.2609 37.6869 33.1229 37.7389 32.9849C38.0209 32.2363 38.7215 31.7057 39.5661 31.5997L39.9121 31.5564C40.2454 31.515 40.4954 31.2311 40.4954 30.8951V29.6078C40.4969 29.2725 40.2462 28.9892 39.9128 28.9472ZM30.4977 34.2521C28.2926 34.2521 26.498 32.4582 26.498 30.2524C26.498 28.0466 28.2926 26.2527 30.4977 26.2527C32.7035 26.2527 34.4974 28.0466 34.4974 30.2524C34.4974 32.4582 32.7028 34.2521 30.4977 34.2521Z" fill="white"/>
<path d="M31.8309 10.2542C32.5673 10.2542 33.1642 9.65732 33.1642 8.92099C33.1642 8.18465 32.5673 7.58774 31.8309 7.58774C31.0946 7.58774 30.4977 8.18465 30.4977 8.92099C30.4977 9.65732 31.0946 10.2542 31.8309 10.2542Z" fill="#FFB943"/>
<path d="M39.9128 7.70765L39.6162 7.6703C38.9376 7.58562 38.3529 7.14301 38.1276 6.54376C38.0823 6.42307 38.033 6.30308 37.9803 6.18512C37.705 5.56587 37.8096 4.82656 38.2536 4.25598L38.4036 4.06397C38.6103 3.79868 38.587 3.42136 38.349 3.18334L37.569 2.4034C37.3317 2.16608 36.9538 2.14272 36.6884 2.3481L36.4958 2.49808C35.9251 2.94203 35.1852 3.04733 34.5666 2.77204C34.4473 2.71869 34.3273 2.67002 34.2073 2.62471C33.5987 2.39544 33.1667 1.82478 33.0808 1.13617L33.0442 0.839551C33.0028 0.506219 32.7189 0.255615 32.3822 0.255615H31.2789C30.9429 0.255615 30.659 0.506219 30.6177 0.839551L30.581 1.13554C30.4963 1.81416 30.0537 2.39879 29.4558 2.62409C29.3345 2.6694 29.2138 2.71877 29.0951 2.77204C28.4765 3.04671 27.7366 2.94273 27.1653 2.49808L26.9726 2.3488C26.7074 2.14218 26.33 2.16616 26.0927 2.40411L25.3128 3.18404C25.0748 3.42199 25.0515 3.7993 25.2581 4.06467L25.4074 4.25669C25.8513 4.82797 25.9566 5.56728 25.6813 6.18582C25.6287 6.30448 25.58 6.42377 25.534 6.54509C25.3087 7.14441 24.7241 7.58633 24.0455 7.67101L23.7489 7.70835C23.4155 7.74967 23.1649 8.03363 23.1649 8.36962V9.47289C23.1649 9.80888 23.4149 10.0928 23.7489 10.1342L24.0455 10.1715C24.7247 10.2562 25.3087 10.6988 25.5346 11.298C25.5799 11.4187 25.6293 11.5387 25.682 11.6567C25.9573 12.2759 25.852 13.0152 25.408 13.5858L25.2587 13.7778C25.0521 14.0431 25.0754 14.4204 25.3134 14.6585L26.0933 15.4384C26.3307 15.6764 26.7086 15.7004 26.974 15.4937L27.1666 15.3437C27.7373 14.8998 28.4765 14.7951 29.0957 15.0698C29.215 15.1231 29.335 15.1718 29.455 15.2171C30.0636 15.4464 30.4956 16.017 30.5809 16.7056L30.6183 17.0023C30.6596 17.3356 30.9436 17.5862 31.2795 17.5862H32.3828C32.7188 17.5862 33.0028 17.3356 33.0448 17.0023L33.0814 16.7063C33.1674 16.017 33.5994 15.4464 34.2066 15.2177C34.328 15.1724 34.4487 15.123 34.5673 15.0698C35.1859 14.7945 35.9259 14.8991 36.4972 15.3437L36.6898 15.493C36.9551 15.699 37.3324 15.675 37.5704 15.4377L38.3504 14.6578C38.5883 14.4198 38.6117 14.0425 38.405 13.7771L38.2558 13.5851C37.8111 13.0138 37.7065 12.2745 37.9818 11.656C38.0344 11.5373 38.0838 11.418 38.1291 11.2967C38.3551 10.6974 38.9391 10.2555 39.6183 10.1708L39.9149 10.1335C40.2482 10.0921 40.4982 9.80817 40.4982 9.47219V8.36892C40.4968 8.03293 40.2461 7.74967 39.9128 7.70765ZM31.8308 11.5873C30.3603 11.5873 29.1644 10.3914 29.1644 8.9209C29.1644 7.4504 30.3603 6.25449 31.8308 6.25449C33.3014 6.25449 34.4972 7.4504 34.4972 8.9209C34.4972 10.3914 33.3007 11.5873 31.8308 11.5873Z" fill="white"/>
</g>
<defs>
<clipPath id="clip0">
<rect width="40" height="40" fill="white" transform="translate(0.498169 0.253296)"/>
</clipPath>
</defs>
</svg>
