<svg width="31" height="31" viewBox="0 0 31 31" fill="none" xmlns="http://www.w3.org/2000/svg">
<g clip-path="url(#clip0)">
<path d="M28.4105 14.0906C27.9233 13.2257 27.0397 12.6882 26.1052 12.6882C25.7044 12.6882 25.3105 12.7908 24.966 12.9852L23.2695 13.9404C23.2812 14.0945 23.274 14.2412 23.2505 14.3825C23.2172 14.5811 23.146 14.7637 23.0413 14.9309L25.3349 13.6391C25.5759 13.503 25.8398 13.439 26.1056 13.439C26.7444 13.439 27.3925 13.8119 27.7571 14.459C28.2727 15.3748 28.5678 16.5073 27.7454 16.9705L21.1851 21.5978C21.1402 22.3177 21.021 23.147 20.7423 23.7511C20.565 23.6768 20.3758 23.6259 20.1775 23.6152L16.5003 23.41C16.47 23.541 16.4362 23.6651 16.3961 23.7799C16.3766 23.8361 16.3526 23.8865 16.3307 23.9397C16.4348 24.0032 16.5277 24.0824 16.6136 24.1684L20.1358 24.3649C20.1838 24.3678 20.2292 24.3777 20.2747 24.3868C20.4164 24.4157 20.5474 24.4734 20.6579 24.5564C20.759 24.6332 20.8431 24.7294 20.9071 24.8389C20.9981 24.9943 21.0465 25.1771 21.0352 25.3707L20.8759 28.2268C20.847 28.7341 20.4267 29.127 19.9243 29.127C19.9063 29.127 19.8882 29.1261 19.8706 29.125L17.2422 28.9784C17.1846 29.1094 17.1142 29.2335 17.0238 29.3425C16.9065 29.4837 16.7643 29.602 16.6035 29.6948L19.8291 29.8746C19.8609 29.8766 19.8932 29.8776 19.9249 29.8776C20.828 29.8776 21.5754 29.1709 21.6258 28.2677L21.7851 25.4115C21.8106 24.9638 21.66 24.5332 21.3654 24.196C21.6428 23.6574 21.8237 22.9346 21.9078 22.007L28.1522 17.6031C28.9686 17.116 29.4563 15.947 28.4105 14.0906Z" fill="white"/>
<path d="M22.3435 11.9385C22.4202 12.0357 22.4813 12.1303 22.5484 12.2259C22.6812 12.4146 22.7966 12.5993 22.8929 12.7809C22.9251 12.1553 22.9716 11.4695 23.0424 10.7311L23.1289 9.82479L23.0962 9.82771L23.5037 5.47317C23.5975 4.84071 23.4539 4.20806 23.098 3.68905C22.7291 3.15097 22.1768 2.7993 21.5444 2.69869C21.4251 2.67962 21.3034 2.67009 21.1827 2.67009C20.7204 2.67009 20.2864 2.80468 19.9184 3.04149C19.7463 1.91012 18.8216 1.02254 17.676 0.976103C17.6448 0.974687 17.613 0.974121 17.5822 0.974121C16.6131 0.974121 15.7788 1.57109 15.4094 2.43734C15.387 2.41875 15.3615 2.40534 15.3395 2.38769C15.4328 2.61544 15.4827 2.85914 15.5032 3.11001C15.5081 3.17353 15.5213 3.23516 15.5217 3.29915L15.7261 6.53252L15.9566 3.36654C15.9943 2.44631 16.7152 1.72418 17.5813 1.72418C17.6023 1.72418 17.6237 1.72465 17.6448 1.72569C18.5392 1.76212 19.2326 2.55598 19.194 3.4983L19.0254 7.64143L19.5567 4.87261C19.6911 4.02656 20.3928 3.42006 21.1817 3.42006C21.2623 3.42006 21.3435 3.42666 21.4251 3.43959C22.3087 3.58032 22.9055 4.44902 22.7573 5.38077L22.2632 10.6617L22.294 10.6588C22.2569 11.0476 22.2275 11.418 22.2016 11.7787C22.2508 11.8315 22.2991 11.8825 22.3435 11.9385Z" fill="white"/>
<path d="M1.17287 7.44438L2.6192 13.614C2.68271 13.8848 2.81834 14.1174 2.99408 14.3088C3.07525 15.3497 3.15567 16.5119 3.15567 17.0133C3.15567 17.9243 5.0136 23.661 6.33118 24.8583C6.54751 24.697 6.80451 24.5856 7.09144 24.5573L10.9233 24.1702L11.2456 24.1374L11.3834 24.1233L11.7406 24.0876L12.0058 24.0608L12.5818 24.0031L12.9638 23.9645L15.3616 23.7226L15.3705 23.7217C15.4228 23.7158 15.475 23.7134 15.5263 23.7134C15.6363 23.7134 15.7433 23.7274 15.8474 23.749C15.8542 23.751 15.8601 23.7529 15.8674 23.7549C15.8679 23.7529 15.869 23.752 15.8694 23.75C15.9178 23.6351 15.9589 23.5124 15.9921 23.3815C16.1676 22.6929 16.153 21.8147 16.081 21.0582L22.0811 15.2335L22.3651 14.9578C22.433 14.9038 22.4892 14.8448 22.5396 14.7836C22.9057 14.3361 22.8059 13.7133 22.5011 13.1011C22.4033 12.9058 22.285 12.7123 22.155 12.5257C22.0896 12.4316 22.0221 12.3395 21.9507 12.2498C21.5166 11.7013 20.8898 11.4091 20.2836 11.4091C19.8962 11.4091 19.5164 11.5286 19.2011 11.7779L16.0078 14.3046C15.8441 13.3374 15.5631 11.434 15.4188 9.08306L15.3861 9.09136L15.0216 3.3156C15.0216 3.23867 15.009 3.16506 15 3.09002C14.976 2.88181 14.9226 2.68559 14.8394 2.50428C14.7483 2.30683 14.6292 2.1275 14.4817 1.97649C14.1638 1.65219 13.7334 1.45059 13.2565 1.44983C13.2561 1.44983 13.255 1.44983 13.2545 1.44983C12.279 1.44983 11.488 2.28267 11.4869 3.31173L11.4343 4.89321L11.4218 5.27102L11.4088 5.65592L11.3844 6.38606L11.2961 5.6293L11.2521 5.2496L11.2081 4.87084L10.8619 1.89202C10.7512 0.939033 9.97653 0.233521 9.0866 0.233521C9.02166 0.233521 8.95663 0.236918 8.89085 0.244941C7.92097 0.357634 7.23141 1.27787 7.35061 2.30032L7.76231 7.21616L6.98205 3.29606C6.8149 2.45501 6.13185 1.86333 5.38707 1.86333C5.29618 1.86333 5.20406 1.87239 5.11185 1.89051C4.26656 2.0586 3.73367 2.96024 3.9213 3.90473L4.8555 9.48286L4.21115 6.73226C4.0423 6.01316 3.40135 5.52756 2.69319 5.52756C2.57521 5.52756 2.45544 5.54124 2.33595 5.56908C1.49717 5.7654 0.976177 6.60522 1.17287 7.44438Z" fill="white"/>
<path d="M16.8738 28.2541L16.5835 25.3795L16.5605 25.1497C16.5551 25.0969 16.5429 25.0471 16.5302 24.9973C16.4927 24.8477 16.4237 24.7128 16.3309 24.5984C16.2624 24.5143 16.1828 24.443 16.0924 24.3839C16.0206 24.3365 15.9423 24.2998 15.8597 24.2719C15.7693 24.2407 15.6735 24.223 15.5744 24.2178C15.5587 24.2167 15.5431 24.2133 15.5269 24.2133C15.4923 24.2133 15.4571 24.2148 15.4214 24.2187L14.3387 24.3277L12.9724 24.466L11.8229 24.5819L11.5595 24.6088L11.1658 24.6483L10.7819 24.6865L7.14121 25.054C7.07353 25.0608 7.00907 25.075 6.94649 25.0936C6.80841 25.1351 6.68288 25.2036 6.57651 25.2934C6.50516 25.3531 6.44551 25.4254 6.39256 25.5016C6.2574 25.6976 6.18482 25.9376 6.21078 26.1927L6.52404 29.298C6.57831 29.8337 7.03012 30.2334 7.55819 30.2334C7.59311 30.2334 7.62803 30.2324 7.6638 30.2285L14.2652 29.5619L15.9435 29.3924C16.0618 29.3801 16.1708 29.3454 16.2729 29.298C16.4435 29.2193 16.5867 29.0972 16.6912 28.9452C16.8269 28.7508 16.8996 28.5103 16.8738 28.2541ZM11.3902 27.0656C11.2565 27.111 11.127 27.1565 11.0068 27.2019C10.8644 27.2561 10.7383 27.3099 10.6222 27.3641C10.383 27.4751 10.2032 27.5835 10.1315 27.6852C9.70833 28.2849 10.6967 28.5883 10.6967 28.5883C9.69974 28.4051 8.66681 27.9414 9.45198 26.8206C9.66114 26.522 10.1232 26.3432 10.6848 26.2371C10.8072 26.2141 10.9329 26.1936 11.064 26.1774C11.1882 26.1623 11.3138 26.1486 11.4423 26.1379C12.8926 26.0235 14.5568 26.2249 14.5568 26.2249C14.5568 26.2249 12.7076 26.6228 11.3902 27.0656Z" fill="white"/>
</g>
<defs>
<clipPath id="clip0">
<rect width="30" height="30" fill="white" transform="translate(0.0690918 0.233521)"/>
</clipPath>
</defs>
</svg>
