<svg width="31" height="19" viewBox="0 0 31 19" fill="none" xmlns="http://www.w3.org/2000/svg">
<path d="M21.779 16.5879C19.5193 16.5879 17.2871 16.2256 15.1442 15.5112C13.5401 14.9763 11.869 14.7051 10.1774 14.7051H2.79881C2.10742 14.7051 1.47766 14.4372 1.00693 14.0003C0.988828 14.1384 0.978516 14.2789 0.978516 14.4219V17.7167C0.978516 18.2021 1.37202 18.5956 1.8574 18.5956H8.99877C10.0919 18.5956 11.1196 18.1699 11.8927 17.3968C11.8937 17.3958 11.8947 17.3949 11.8956 17.3939C12.2183 17.0732 12.6991 16.9751 13.1214 17.144L14.9102 17.8597C16.1319 18.348 17.418 18.5956 18.7326 18.5956H24.4507C26.8389 18.5956 28.9312 17.3061 30.0691 15.387C28.7102 16.1702 27.1641 16.5878 25.5535 16.5878H21.779V16.5879Z" fill="white"/>
<path d="M15.7011 13.8438C16.6044 14.1449 17.5252 14.3769 18.4577 14.5406L17.1327 13.8259C15.4965 12.9596 13.6667 11.9909 11.977 11.0967C11.0253 10.5928 9.8615 10.6248 8.93955 11.18C8.27441 11.5803 7.79096 12.2188 7.573 12.9475H10.1783C12.0593 12.9475 13.9174 13.2491 15.7011 13.8438Z" fill="white"/>
<path d="M27.2756 8.36558C25.6706 8.36558 24.1151 7.91318 22.7621 7.05737L21.472 9.63752C21.2549 10.0717 20.727 10.2476 20.2928 10.0306C19.8586 9.81347 19.6827 9.28555 19.8998 8.85138L21.2863 6.07811C20.8503 5.78743 20.3961 5.48467 19.9361 5.178L18.6478 7.75469C18.4307 8.18886 17.9028 8.36482 17.4686 8.14773C17.0345 7.93064 16.8585 7.40272 17.0756 6.96854L18.4622 4.19533C18.0002 3.88737 17.5461 3.58456 17.112 3.29517L15.8237 5.87186C15.6066 6.30603 15.0786 6.48199 14.6445 6.2649C14.2103 6.04781 14.0344 5.51989 14.2514 5.08571L15.638 2.31244C14.4523 1.52191 13.6423 0.981852 13.6423 0.981852C13.2938 0.749472 12.8296 0.795409 12.5333 1.09166L10.8139 2.81113C10.0283 3.59675 8.75019 3.59663 7.96464 2.81113C7.72342 2.53973 6.60424 1.60247 5.03268 2.0377C3.98996 2.32662 3.17945 3.15812 2.91743 4.20746L1.9469 8.08966C1.92944 8.15939 1.92065 8.23099 1.92065 8.30289V12.0685C1.92065 12.5539 2.31416 12.9474 2.79954 12.9474H5.76813C6.01967 11.5989 6.83967 10.3917 8.03285 9.67379C9.47949 8.80245 11.3061 8.75218 12.7992 9.54283C14.4888 10.4371 16.3188 11.406 17.9551 12.2723L20.4837 13.6111C21.9907 14.4085 23.6881 14.8301 25.3923 14.8302H25.5542C27.5061 14.8302 29.3411 14.0701 30.7212 12.6899C30.886 12.5251 30.9786 12.3006 30.9786 12.0675C30.9787 10.0263 29.3179 8.36558 27.2756 8.36558Z" fill="white"/>
</svg>
