<svg width="31" height="31" viewBox="0 0 31 31" fill="none" xmlns="http://www.w3.org/2000/svg">
<g clip-path="url(#clip0)">
<path d="M12.4986 6.92957C12.5531 7.17496 12.6489 7.40247 12.7666 7.61703C9.5253 8.60512 7.15937 11.5782 7.15937 15.1479C7.15937 15.6049 7.19459 16.0443 7.28241 16.4838C8.23154 15.1654 9.53227 14.0932 11.044 13.4077C11.6944 11.8609 13.2586 10.7535 15.0692 10.7535C16.8797 10.7535 18.444 11.8609 19.0944 13.4077C19.3404 13.9526 19.4635 14.5327 19.4635 15.1479C19.4635 17.6253 17.452 19.5422 15.0692 19.5422C13.6102 19.5422 12.4326 20.7199 12.4326 22.1789C12.4326 22.3371 12.4501 22.4776 12.4853 22.6183C13.2939 22.8995 14.1727 23.0577 15.0692 23.0577C19.5266 23.0577 22.979 19.4356 22.979 15.1479C22.979 11.5782 20.6131 8.60512 17.3718 7.61703C17.4895 7.40247 17.5853 7.1749 17.6398 6.92957C20.7177 6.22185 23.3652 4.23307 24.9651 1.46761C25.2089 1.04704 25.0647 0.509755 24.645 0.266892C24.221 0.0214523 23.6854 0.166466 23.4443 0.587037C22.1184 2.87779 19.9463 4.55111 17.4153 5.18109C16.9808 4.32014 16.0976 3.72256 15.0692 3.72256C14.0407 3.72256 13.1576 4.32014 12.7231 5.18109C10.1921 4.55105 8.01996 2.87773 6.69415 0.587037C6.45211 0.166466 5.91483 0.0214523 5.49344 0.266892C5.07375 0.509813 4.92955 1.04704 5.17329 1.46761C6.77325 4.23307 9.42071 6.22179 12.4986 6.92957Z" fill="white"/>
<path d="M15.0693 17.7845C16.5283 17.7845 17.7059 16.6068 17.7059 15.1479C17.7059 14.9896 17.6883 14.8491 17.6531 14.7084C16.8446 14.4272 15.9657 14.269 15.0693 14.269C10.6118 14.269 7.15942 17.8911 7.15942 22.1788C7.15942 26.5556 10.6925 30.1473 15.0693 30.1473C19.4461 30.1473 22.9791 26.5556 22.9791 22.1788C22.9791 21.7218 22.9439 21.2824 22.8561 20.843C21.907 22.1613 20.6062 23.2335 19.0945 23.919C18.4442 25.4658 16.8799 26.5732 15.0693 26.5732C12.609 26.5732 10.675 24.5568 10.675 22.1788C10.6749 19.68 12.7228 17.7845 15.0693 17.7845Z" fill="white"/>
</g>
<defs>
<clipPath id="clip0">
<rect width="30" height="30" fill="white" transform="translate(0.0690918 0.147339)"/>
</clipPath>
</defs>
</svg>
