<svg width="30" height="31" viewBox="0 0 30 31" fill="none" xmlns="http://www.w3.org/2000/svg">
<g clip-path="url(#clip0)">
<path d="M6.8623 30.4093H14.9999H23.1375V29.3242H6.8623V30.4093Z" fill="white"/>
<path d="M23.8423 3.00786C23.5712 2.79911 23.2628 2.64377 22.9336 2.55013L19.7337 1.6357C19.645 1.6103 19.5642 1.56271 19.4991 1.49744L18.7091 0.70755C17.5664 1.31587 16.2945 1.64127 15 1.6564C13.7056 1.64127 12.4337 1.31587 11.2909 0.70755L10.501 1.49744C10.4358 1.56277 10.355 1.61036 10.2663 1.63575L7.06641 2.55013C6.73727 2.64377 6.42896 2.79911 6.15779 3.00786L0 7.74477L3.73026 13.341L4.76723 12.5113L2.07097 8.46743C1.90833 8.21828 1.97674 7.88457 2.22436 7.71949C2.47197 7.55442 2.80627 7.61963 2.97372 7.86558L5.61759 11.8309L5.98085 11.5402C6.14373 11.4099 6.36689 11.3846 6.55493 11.475C6.74297 11.5653 6.86247 11.7555 6.86247 11.9641V28.2393H23.1377V11.964C23.1377 11.7554 23.2572 11.5653 23.4453 11.4749C23.6332 11.3845 23.8564 11.4099 24.0193 11.5402L24.3826 11.8308L27.0264 7.86552C27.1933 7.61785 27.5288 7.55157 27.7773 7.71724C28.0258 7.8829 28.0936 8.21816 27.9292 8.46737L25.2329 12.5112L26.2699 13.3409L30.0002 7.74471L23.8423 3.00786Z" fill="white"/>
</g>
<defs>
<clipPath id="clip0">
<rect width="30" height="30" fill="white" transform="translate(0 0.558411)"/>
</clipPath>
</defs>
</svg>
