<svg width="31" height="31" viewBox="0 0 31 31" fill="none" xmlns="http://www.w3.org/2000/svg">
<g clip-path="url(#clip0)">
<path d="M29.4913 12.5982C29.9544 12.3666 30.1421 11.8035 29.9105 11.3404C29.6791 10.8774 29.116 10.6898 28.6528 10.9211L28.2456 11.1248C27.6289 10.4663 26.8652 9.92682 25.9777 9.56308C24.3745 8.90596 22.2592 8.76299 20.3193 9.18064C18.5351 9.56478 17.16 10.3606 16.3383 11.4637C15.908 11.349 15.4637 11.291 15.0097 11.291C14.5558 11.291 14.1115 11.349 13.6812 11.4637C12.8595 10.3606 11.4844 9.56478 9.70016 9.18064C7.76032 8.76299 5.64506 8.90596 4.04178 9.56308C3.15433 9.92682 2.39057 10.4663 1.77388 11.1248L1.36671 10.9211C0.903654 10.6895 0.340458 10.8774 0.108957 11.3404C-0.122602 11.8035 0.0650712 12.3666 0.52819 12.5982L0.694419 12.6813C-0.108071 14.2974 -0.239905 16.2378 0.495085 18.0353C1.15168 19.6411 2.39367 20.8949 3.99238 21.5656C4.80021 21.9046 5.65016 22.0741 6.50046 22.0741C7.33307 22.0741 8.16602 21.9115 8.95984 21.5861C10.5629 20.9291 12.1709 19.5461 13.2612 17.8867C14.3263 16.2655 14.7372 14.6372 14.4579 13.2124C14.6387 13.1818 14.8229 13.1659 15.0099 13.1659C15.1968 13.1659 15.381 13.1819 15.5618 13.2124C15.2825 14.6371 15.6935 16.2655 16.7586 17.8867C17.8488 19.5461 19.4568 20.9291 21.0599 21.5861C21.8538 21.9115 22.6865 22.0741 23.5193 22.0741C24.3695 22.0741 25.2196 21.9045 26.0273 21.5656C27.626 20.8949 28.868 19.6411 29.5246 18.0353C30.2596 16.2378 30.1277 14.2974 29.3253 12.6813L29.4913 12.5982ZM6.01578 12.8121C5.03704 12.8061 4.23531 13.5986 4.22857 14.5786C4.225 15.0963 3.80237 15.5131 3.2847 15.5096C3.15919 15.5087 3.03966 15.4833 2.93056 15.4378C2.58955 15.2956 2.35096 14.958 2.35366 14.5657C2.36748 12.5527 4.01535 10.925 6.02703 10.9371C6.54481 10.9403 6.962 11.3625 6.95889 11.8803C6.95578 12.398 6.5335 12.8152 6.01578 12.8121ZM21.9639 12.4065C21.3945 12.3789 20.6466 12.5955 20.0584 12.9582C19.5041 13.3001 19.1628 13.7236 19.1452 14.0913C19.1266 14.4831 18.8699 14.8073 18.5218 14.9307C18.4104 14.9702 18.2896 14.9891 18.1642 14.9831C17.647 14.9585 17.2478 14.5193 17.2724 14.0021C17.3208 12.9865 17.9607 12.0491 19.0742 11.3624C19.9903 10.7975 21.1045 10.4877 22.0548 10.5337C22.5719 10.5587 22.9708 10.9983 22.9458 11.5155C22.9207 12.0326 22.4811 12.4315 21.9639 12.4065Z" fill="white"/>
</g>
<defs>
<clipPath id="clip0">
<rect width="30" height="30" fill="white" transform="translate(0.00976562 0.509399)"/>
</clipPath>
</defs>
</svg>
