<svg width="30" height="31" viewBox="0 0 30 31" fill="none" xmlns="http://www.w3.org/2000/svg">
<path d="M11.1855 4.11035V3.30762H9.39844L9.14062 5.66309C9.13477 5.7041 9.13477 5.73926 9.12891 5.78027H9.51562C10.4355 5.78027 11.1855 5.03613 11.1855 4.11035Z" fill="white"/>
<path d="M8.58398 27.7354H10.7168V29.0303H8.58398V27.7354Z" fill="white"/>
<path d="M16.2599 2.72165H20.7716V1.36227H9.42786V2.72165H15.0411H16.2599Z" fill="white"/>
<path d="M18.9786 4.11035C18.9786 5.03027 19.7286 5.78027 20.6486 5.78027H21.0411L20.8009 3.30762H18.9786V4.11035Z" fill="white"/>
<path d="M15.9668 6.43652V3.30762H15.334V7.30957C15.7148 7.18652 15.9668 6.83496 15.9668 6.43652Z" fill="white"/>
<path d="M21.0996 6.4541L21.0938 6.36621H20.6426C19.4004 6.36621 18.3926 5.3584 18.3867 4.11035V3.30762H16.5469V6.43066C16.5469 7.2627 15.873 7.94238 15.0352 7.94238C14.8711 7.94238 14.7422 7.81348 14.7422 7.64941V3.30762H11.7656V4.11035C11.7656 5.35254 10.7578 6.36035 9.50977 6.36621H9.06445C8.35547 13.1104 7.99219 19.8896 7.96875 26.6689V26.6865C7.96875 26.9385 8.17383 27.1494 8.42578 27.1494H10.9336C11.168 27.1494 11.3613 26.9795 11.3906 26.7451L12.3867 18.9053C12.5508 17.6221 12.7969 16.3506 13.1309 15.0967V15.0908L14.7305 9.64746C14.7656 9.52441 14.8828 9.43652 15.0117 9.43652C15.1406 9.43652 15.2578 9.52441 15.293 9.64746L16.875 15.2783V15.2842C17.168 16.4268 17.3848 17.5928 17.5371 18.7588L18.5508 26.7393C18.5801 26.9678 18.7734 27.1377 19.0078 27.1436H21.5625C21.8145 27.1436 22.0195 26.9385 22.0254 26.6865C22.0605 19.9365 21.75 13.1807 21.0996 6.4541ZM17.5137 15.3721C17.4961 15.2959 17.4785 15.2256 17.4551 15.1494C17.4141 14.9912 17.5078 14.833 17.666 14.792C17.8242 14.751 17.9824 14.8447 18.0234 15.0029V15.0088C18.041 15.085 18.0645 15.1611 18.082 15.2373C18.123 15.3955 18.0234 15.5537 17.8652 15.5947C17.707 15.624 17.5488 15.5244 17.5137 15.3721ZM18.457 18.9463C18.2988 18.9639 18.1523 18.8525 18.1289 18.6943C18.0293 17.9092 17.8945 17.1182 17.7305 16.3389C17.6953 16.1807 17.7949 16.0225 17.9531 15.9873C18.1113 15.9521 18.2695 16.0518 18.3047 16.21V16.2158C18.4746 17.0127 18.6094 17.8213 18.709 18.6182C18.7324 18.7822 18.6211 18.9287 18.457 18.9463Z" fill="white"/>
<path d="M19.2656 27.7354H21.3984V29.0303H19.2656V27.7354Z" fill="white"/>
</svg>
