<svg width="31" height="31" viewBox="0 0 31 31" fill="none" xmlns="http://www.w3.org/2000/svg">
<g clip-path="url(#clip0)">
<path d="M13.4637 7.9857C14.9142 7.9857 16.2756 8.37392 17.4498 9.05185V1.859C17.4498 1.31363 17.0077 0.87146 16.4622 0.87146H10.4651C9.91971 0.87146 9.47754 1.31357 9.47754 1.859V9.05179C10.6518 8.37392 12.0132 7.9857 13.4637 7.9857ZM13.4637 3.52623C13.9521 3.52623 14.3481 3.92218 14.3481 4.41063C14.3481 4.89907 13.9521 5.29502 13.4637 5.29502C12.9752 5.29502 12.5793 4.89907 12.5793 4.41063C12.5793 3.92218 12.9752 3.52623 13.4637 3.52623Z" fill="white"/>
<path d="M19.7039 15.9831C19.7039 12.5422 16.9045 9.74286 13.4636 9.74286C10.0228 9.74286 7.22339 12.5422 7.22339 15.9831C7.22339 19.4241 10.0227 22.2234 13.4636 22.2234C16.9046 22.2234 19.7039 19.424 19.7039 15.9831ZM11.4662 19.1227C11.2595 19.1227 11.052 19.0502 10.8848 18.9026C10.5212 18.5814 10.4868 18.0261 10.808 17.6624L12.5838 15.6521L12.571 12.2843C12.5692 11.7991 12.961 11.4042 13.4462 11.4024H13.4497C13.9334 11.4024 14.3264 11.7935 14.3282 12.2776L14.3423 15.9798C14.3431 16.1952 14.2648 16.4033 14.1222 16.5648L12.125 18.8257C11.9513 19.0224 11.7094 19.1227 11.4662 19.1227Z" fill="white"/>
<path d="M22.0359 15.1045H21.4126C21.4443 15.3931 21.4611 15.6862 21.4611 15.9831C21.4611 16.28 21.4443 16.5731 21.4126 16.8617H22.0359C22.5211 16.8617 22.9145 16.4683 22.9145 15.9831C22.9145 15.4979 22.5211 15.1045 22.0359 15.1045Z" fill="white"/>
<path d="M13.4637 23.9806C12.0132 23.9806 10.6517 23.5924 9.47754 22.9145V29.884C9.47754 30.4294 9.91965 30.8716 10.4651 30.8716H16.4624C17.0077 30.8716 17.4499 30.4295 17.4499 29.884V22.9145C16.2757 23.5924 14.9142 23.9806 13.4637 23.9806Z" fill="white"/>
</g>
<defs>
<clipPath id="clip0">
<rect width="30" height="30" fill="white" transform="translate(0.0690918 0.87146)"/>
</clipPath>
</defs>
</svg>
