<?xml version="1.0" encoding="iso-8859-1"?>
<!-- Generator: Adobe Illustrator 19.0.0, SVG Export Plug-In . SVG Version: 6.00 Build 0)  -->
<svg version="1.1" id="Layer_1" xmlns="http://www.w3.org/2000/svg" xmlns:xlink="http://www.w3.org/1999/xlink" x="0px" y="0px"
	 viewBox="0 0 512 512" style="enable-background:new 0 0 512 512;" xml:space="preserve">
<g>
	<path style="fill:#507C5C;" d="M186.66,372.47h-62.88c-7.267,0-13.161-5.892-13.161-13.161c0-7.269,5.893-13.161,13.161-13.161
		h62.88c7.267,0,13.161,5.892,13.161,13.161C199.821,366.578,193.927,372.47,186.66,372.47z"/>
	<path style="fill:#507C5C;" d="M178.248,394.576c-3.369,0-6.736-1.285-9.306-3.855c-5.139-5.139-5.139-13.473,0-18.612l12.801-12.8
		l-12.801-12.8c-5.139-5.139-5.139-13.473,0-18.612c5.138-5.139,13.471-5.141,18.613,0l22.107,22.106
		c2.468,2.468,3.855,5.816,3.855,9.306c0,3.49-1.387,6.838-3.855,9.306l-22.107,22.106
		C184.985,393.291,181.615,394.576,178.248,394.576z"/>
	<path style="fill:#507C5C;" d="M388.22,372.47h-62.88c-7.267,0-13.161-5.892-13.161-13.161c0-7.269,5.893-13.161,13.161-13.161
		h62.88c7.267,0,13.161,5.892,13.161,13.161C401.381,366.578,395.489,372.47,388.22,372.47z"/>
	<path style="fill:#507C5C;" d="M333.752,394.576c-3.369,0-6.736-1.285-9.306-3.855l-22.107-22.106
		c-2.468-2.468-3.855-5.816-3.855-9.306c0-3.49,1.387-6.838,3.855-9.306l22.107-22.106c5.142-5.139,13.473-5.138,18.613,0
		c5.139,5.139,5.139,13.473,0,18.612l-12.801,12.8l12.801,12.8c5.139,5.139,5.139,13.473,0,18.612
		C340.488,393.291,337.12,394.576,333.752,394.576z"/>
</g>
<rect x="94.888" y="130.58" style="fill:#CFF09E;" width="136.857" height="150.018"/>
<g>
	<path style="fill:#507C5C;" d="M231.755,293.769H94.893c-7.267,0-13.161-5.892-13.161-13.161V130.585
		c0-7.269,5.893-13.161,13.161-13.161h136.861c7.267,0,13.161,5.892,13.161,13.161V280.61
		C244.915,287.877,239.022,293.769,231.755,293.769z M108.054,267.448h110.54V143.744h-110.54V267.448z"/>
	<path style="fill:#507C5C;" d="M361.3,280.41c-0.703,0-1.416-0.057-2.133-0.174l-80.718-13.162
		c-6.367-1.038-11.043-6.538-11.043-12.99v-96.978c0-6.38,4.576-11.841,10.856-12.958l74.027-13.162
		c7.154-1.266,13.99,3.497,15.262,10.654s-3.497,13.988-10.654,15.261l-63.171,11.231v74.763l69.675,11.362
		c7.174,1.17,12.041,7.933,10.872,15.107C373.221,275.822,367.637,280.41,361.3,280.41z"/>
</g>
<rect x="342.098" y="130.58" style="fill:#CFF09E;" width="75.009" height="150.018"/>
<g>
	<path style="fill:#507C5C;" d="M417.108,293.769h-75.01c-7.267,0-13.161-5.892-13.161-13.161V130.585
		c0-7.269,5.893-13.161,13.161-13.161h75.009c7.267,0,13.161,5.892,13.161,13.161V280.61
		C430.269,287.877,424.375,293.769,417.108,293.769z M355.258,267.448h48.688V143.744h-48.688V267.448z"/>
	<path style="fill:#507C5C;" d="M94.809,271.4H13.161C5.893,271.4,0,265.508,0,258.239c0-7.269,5.893-13.161,13.161-13.161h68.488
		v-74.81H39.485c-7.267,0-13.161-5.892-13.161-13.161c0-7.269,5.893-13.161,13.161-13.161h55.325
		c7.267,0,13.161,5.892,13.161,13.161v101.132C107.97,265.508,102.078,271.4,94.809,271.4z"/>
	<path style="fill:#507C5C;" d="M472.515,271.4h-55.325c-7.267,0-13.161-5.892-13.161-13.161V157.108
		c0-7.269,5.893-13.161,13.161-13.161h81.649c7.267,0,13.161,5.892,13.161,13.161c0,7.269-5.893,13.161-13.161,13.161h-68.488v74.81
		h42.164c7.267,0,13.161,5.892,13.161,13.161S479.784,271.4,472.515,271.4z"/>
</g>
<g>
</g>
<g>
</g>
<g>
</g>
<g>
</g>
<g>
</g>
<g>
</g>
<g>
</g>
<g>
</g>
<g>
</g>
<g>
</g>
<g>
</g>
<g>
</g>
<g>
</g>
<g>
</g>
<g>
</g>
</svg>
