<svg width="20" height="20" viewBox="0 0 20 20" fill="none" xmlns="http://www.w3.org/2000/svg">
<path d="M19.9713 7.71516C19.9024 7.50301 19.7191 7.34841 19.4984 7.31637L13.2983 6.4154L10.5254 0.797181C10.4268 0.597182 10.223 0.470581 10 0.470581C9.77699 0.470581 9.57332 0.597182 9.47461 0.797181L6.70165 6.4154L0.501673 7.31637C0.281009 7.34841 0.0976117 7.50301 0.0287057 7.71512C-0.0402394 7.92727 0.0172604 8.16012 0.176986 8.31578L4.66322 12.689L3.60432 18.8641C3.56658 19.0839 3.65697 19.306 3.8374 19.4371C3.93947 19.5113 4.06037 19.549 4.18185 19.549C4.27514 19.549 4.36873 19.5268 4.45443 19.4817L10 16.5662L15.5453 19.4817C15.7428 19.5855 15.982 19.5682 16.1624 19.4371C16.3428 19.306 16.4333 19.0838 16.3956 18.864L15.3363 12.689L19.823 8.31575C19.9827 8.16012 20.0403 7.92727 19.9713 7.71516Z" fill="url(#paint0_linear)"/>
<defs>
<linearGradient id="paint0_linear" x1="10" y1="0.470581" x2="10" y2="19.549" gradientUnits="userSpaceOnUse">
<stop stop-color="#FFB943"/>
<stop offset="1" stop-color="#FF9B3F"/>
</linearGradient>
</defs>
</svg>
